<svg width="125" height="35" viewBox="0 0 125 35" fill="none" xmlns="http://www.w3.org/2000/svg">
<path d="M60.3 25.2C59.54 25.2 58.9067 25.0733 58.4 24.82C57.8933 24.5533 57.48 24.22 57.16 23.82V24.5C57.16 24.6467 57.1133 24.7667 57.02 24.86C56.9267 24.9533 56.8067 25 56.66 25H54.76C54.6133 25 54.4933 24.9533 54.4 24.86C54.3067 24.7667 54.26 24.6467 54.26 24.5V11.3C54.26 11.1533 54.3067 11.0333 54.4 10.94C54.4933 10.8467 54.6133 10.8 54.76 10.8H56.82C56.9533 10.8 57.0667 10.8467 57.16 10.94C57.2533 11.0333 57.3 11.1533 57.3 11.3V15.66C57.6333 15.2867 58.0467 14.9867 58.54 14.76C59.0333 14.52 59.62 14.4 60.3 14.4C60.9933 14.4 61.5933 14.52 62.1 14.76C62.62 14.9867 63.06 15.3133 63.42 15.74C63.78 16.1533 64.0533 16.6467 64.24 17.22C64.44 17.7933 64.5467 18.4267 64.56 19.12C64.5733 19.36 64.58 19.5867 64.58 19.8C64.58 20 64.5733 20.2267 64.56 20.48C64.5333 21.1867 64.42 21.8333 64.22 22.42C64.0333 22.9933 63.76 23.4933 63.4 23.92C63.0533 24.3333 62.62 24.6533 62.1 24.88C61.5933 25.0933 60.9933 25.2 60.3 25.2ZM59.4 22.8C59.9067 22.8 60.3067 22.6933 60.6 22.48C60.8933 22.2533 61.1 21.96 61.22 21.6C61.3533 21.24 61.4333 20.8467 61.46 20.42C61.4867 20.0067 61.4867 19.5933 61.46 19.18C61.4333 18.7533 61.3533 18.36 61.22 18C61.1 17.64 60.8933 17.3533 60.6 17.14C60.3067 16.9133 59.9067 16.8 59.4 16.8C58.92 16.8 58.5267 16.9067 58.22 17.12C57.9267 17.3333 57.7 17.6067 57.54 17.94C57.3933 18.26 57.3133 18.6067 57.3 18.98C57.2867 19.22 57.28 19.4667 57.28 19.72C57.28 19.9733 57.2867 20.2267 57.3 20.48C57.3267 20.88 57.4067 21.2533 57.54 21.6C57.6733 21.9467 57.8933 22.2333 58.2 22.46C58.5067 22.6867 58.9067 22.8 59.4 22.8ZM67.2014 25C67.0547 25 66.9347 24.9533 66.8414 24.86C66.7481 24.7667 66.7014 24.6467 66.7014 24.5V11.3C66.7014 11.1533 66.7481 11.0333 66.8414 10.94C66.9347 10.8467 67.0547 10.8 67.2014 10.8H69.3614C69.4947 10.8 69.6081 10.8467 69.7014 10.94C69.7947 11.0333 69.8414 11.1533 69.8414 11.3V15.8C70.2014 15.3733 70.6414 15.0333 71.1614 14.78C71.6814 14.5267 72.3081 14.4 73.0414 14.4C73.8281 14.4 74.5214 14.58 75.1214 14.94C75.7347 15.2867 76.2147 15.8 76.5614 16.48C76.9081 17.1467 77.0814 17.96 77.0814 18.92V24.5C77.0814 24.6467 77.0347 24.7667 76.9414 24.86C76.8481 24.9533 76.7281 25 76.5814 25H74.4014C74.2681 25 74.1547 24.9533 74.0614 24.86C73.9681 24.7667 73.9214 24.6467 73.9214 24.5V19.04C73.9214 18.3333 73.7481 17.7867 73.4014 17.4C73.0547 17 72.5614 16.8 71.9214 16.8C71.2947 16.8 70.7881 17 70.4014 17.4C70.0281 17.7867 69.8414 18.3333 69.8414 19.04V24.5C69.8414 24.6467 69.7947 24.7667 69.7014 24.86C69.6081 24.9533 69.4947 25 69.3614 25H67.2014ZM79.9548 25C79.8215 25 79.7082 24.9533 79.6148 24.86C79.5215 24.7667 79.4748 24.6467 79.4748 24.5V15.1C79.4748 14.9667 79.5215 14.8533 79.6148 14.76C79.7082 14.6533 79.8215 14.6 79.9548 14.6H81.9148C82.0482 14.6 82.1615 14.6533 82.2548 14.76C82.3615 14.8533 82.4148 14.9667 82.4148 15.1V15.9C82.7482 15.4867 83.1548 15.1667 83.6348 14.94C84.1282 14.7133 84.6948 14.6 85.3348 14.6H86.1948C86.3282 14.6 86.4415 14.6467 86.5348 14.74C86.6282 14.8333 86.6748 14.9533 86.6748 15.1V16.82C86.6748 16.9667 86.6282 17.0867 86.5348 17.18C86.4415 17.2733 86.3282 17.32 86.1948 17.32H84.4348C83.8482 17.32 83.3882 17.4867 83.0548 17.82C82.7215 18.14 82.5548 18.6 82.5548 19.2V24.5C82.5548 24.6467 82.5082 24.7667 82.4148 24.86C82.3215 24.9533 82.2015 25 82.0548 25H79.9548ZM92.6891 25.2C91.1557 25.2 89.9357 24.7733 89.0291 23.92C88.1357 23.0667 87.6624 21.8267 87.6091 20.2C87.6091 20.0933 87.6091 19.9533 87.6091 19.78C87.6091 19.5933 87.6091 19.4467 87.6091 19.34C87.6624 18.3133 87.8957 17.4333 88.3091 16.7C88.7224 15.9533 89.3024 15.3867 90.0491 15C90.7957 14.6 91.6691 14.4 92.6691 14.4C93.7891 14.4 94.7224 14.6333 95.4691 15.1C96.2291 15.5533 96.7957 16.18 97.1691 16.98C97.5557 17.7667 97.7491 18.6733 97.7491 19.7V20.16C97.7491 20.2933 97.6957 20.4067 97.5891 20.5C97.4957 20.5933 97.3824 20.64 97.2491 20.64H90.7091C90.7091 20.6533 90.7091 20.68 90.7091 20.72C90.7091 20.7467 90.7091 20.7733 90.7091 20.8C90.7224 21.2267 90.8024 21.62 90.9491 21.98C91.1091 22.3267 91.3291 22.6067 91.6091 22.82C91.9024 23.0333 92.2491 23.14 92.6491 23.14C92.9824 23.14 93.2557 23.0933 93.4691 23C93.6824 22.9067 93.8557 22.7933 93.9891 22.66C94.1357 22.5267 94.2424 22.4133 94.3091 22.32C94.4291 22.1867 94.5224 22.1067 94.5891 22.08C94.6691 22.04 94.7891 22.02 94.9491 22.02H97.0291C97.1624 22.02 97.2691 22.06 97.3491 22.14C97.4424 22.2067 97.4824 22.3067 97.4691 22.44C97.4557 22.6533 97.3424 22.92 97.1291 23.24C96.9291 23.5467 96.6291 23.8533 96.2291 24.16C95.8291 24.4533 95.3291 24.7 94.7291 24.9C94.1424 25.1 93.4624 25.2 92.6891 25.2ZM90.7091 18.82H94.6291V18.78C94.6291 18.3 94.5491 17.8867 94.3891 17.54C94.2424 17.18 94.0224 16.9 93.7291 16.7C93.4357 16.5 93.0824 16.4 92.6691 16.4C92.2557 16.4 91.9024 16.5 91.6091 16.7C91.3157 16.9 91.0891 17.18 90.9291 17.54C90.7824 17.8867 90.7091 18.3 90.7091 18.78V18.82ZM102.808 25.2C102.102 25.2 101.468 25.0667 100.908 24.8C100.348 24.52 99.9016 24.1467 99.5683 23.68C99.2349 23.2133 99.0683 22.6933 99.0683 22.12C99.0683 21.1733 99.4483 20.4267 100.208 19.88C100.982 19.3333 101.995 18.96 103.248 18.76L105.868 18.38V18.02C105.868 17.5 105.748 17.1 105.508 16.82C105.268 16.54 104.848 16.4 104.248 16.4C103.808 16.4 103.455 16.4867 103.188 16.66C102.922 16.8333 102.715 17.06 102.568 17.34C102.462 17.5133 102.308 17.6 102.108 17.6H100.208C100.062 17.6 99.9483 17.56 99.8683 17.48C99.7883 17.3867 99.7549 17.28 99.7683 17.16C99.7683 16.9333 99.8549 16.6667 100.028 16.36C100.202 16.0533 100.468 15.7533 100.828 15.46C101.188 15.1533 101.648 14.9 102.208 14.7C102.768 14.5 103.455 14.4 104.268 14.4C105.108 14.4 105.828 14.5 106.428 14.7C107.028 14.9 107.508 15.18 107.868 15.54C108.228 15.9 108.495 16.32 108.668 16.8C108.842 17.2667 108.928 17.7733 108.928 18.32V24.5C108.928 24.6467 108.882 24.7667 108.788 24.86C108.695 24.9533 108.575 25 108.428 25H106.468C106.335 25 106.222 24.9533 106.128 24.86C106.035 24.7667 105.988 24.6467 105.988 24.5V23.76C105.815 24.0133 105.582 24.2533 105.288 24.48C104.995 24.6933 104.642 24.8667 104.228 25C103.828 25.1333 103.355 25.2 102.808 25.2ZM103.608 23.12C104.048 23.12 104.442 23.0267 104.788 22.84C105.135 22.6533 105.408 22.3667 105.608 21.98C105.808 21.5933 105.908 21.1067 105.908 20.52V20.18L104.048 20.48C103.328 20.6 102.802 20.78 102.468 21.02C102.135 21.26 101.968 21.5533 101.968 21.9C101.968 22.1533 102.042 22.3733 102.188 22.56C102.348 22.7467 102.555 22.8867 102.808 22.98C103.062 23.0733 103.328 23.12 103.608 23.12ZM115.21 25.2C114.543 25.2 113.95 25.0933 113.43 24.88C112.91 24.6533 112.47 24.3333 112.11 23.92C111.75 23.4933 111.477 22.9933 111.29 22.42C111.103 21.8333 110.99 21.1867 110.95 20.48C110.937 20.2267 110.93 20 110.93 19.8C110.93 19.5867 110.937 19.36 110.95 19.12C110.977 18.4267 111.083 17.7933 111.27 17.22C111.47 16.6467 111.743 16.1533 112.09 15.74C112.45 15.3133 112.89 14.9867 113.41 14.76C113.943 14.52 114.543 14.4 115.21 14.4C115.903 14.4 116.497 14.52 116.99 14.76C117.483 14.9867 117.89 15.2867 118.21 15.66V11.3C118.21 11.1533 118.257 11.0333 118.35 10.94C118.443 10.8467 118.563 10.8 118.71 10.8H120.77C120.903 10.8 121.017 10.8467 121.11 10.94C121.203 11.0333 121.25 11.1533 121.25 11.3V24.5C121.25 24.6467 121.203 24.7667 121.11 24.86C121.017 24.9533 120.903 25 120.77 25H118.85C118.717 25 118.603 24.9533 118.51 24.86C118.417 24.7667 118.37 24.6467 118.37 24.5V23.82C118.037 24.22 117.617 24.5533 117.11 24.82C116.603 25.0733 115.97 25.2 115.21 25.2ZM116.13 22.8C116.623 22.8 117.017 22.6867 117.31 22.46C117.617 22.2333 117.837 21.9467 117.97 21.6C118.117 21.2533 118.197 20.88 118.21 20.48C118.237 20.2267 118.25 19.9733 118.25 19.72C118.25 19.4667 118.237 19.22 118.21 18.98C118.197 18.6067 118.117 18.26 117.97 17.94C117.823 17.6067 117.597 17.3333 117.29 17.12C116.997 16.9067 116.61 16.8 116.13 16.8C115.623 16.8 115.223 16.9133 114.93 17.14C114.637 17.3533 114.423 17.64 114.29 18C114.17 18.36 114.097 18.7533 114.07 19.18C114.03 19.5933 114.03 20.0067 114.07 20.42C114.097 20.8467 114.17 21.24 114.29 21.6C114.423 21.96 114.637 22.2533 114.93 22.48C115.223 22.6933 115.623 22.8 116.13 22.8Z" fill="#2D2828"/>
<g clip-path="url(#clip0_30_1110)">
<path d="M39.4302 3.39149L35.0459 2.52243C26.4164 0.811858 17.5836 0.811858 8.95409 2.52243L4.56985 3.39149C3.95649 3.51307 3.37513 3.78536 2.868 4.18856C2.36087 4.59176 1.94069 5.11577 1.63799 5.72251C1.33529 6.32926 1.15767 7.00351 1.11802 7.6963C1.07838 8.38908 1.17771 9.08301 1.40879 9.72768L2.72441 13.3979L2.34454 14.5132C1.89896 15.8215 1.6706 17.2091 1.6706 18.6084V27.9049V29.238C1.6706 30.2253 2.01143 31.1748 2.62247 31.8899C3.23352 32.6049 4.06798 33.0306 4.95299 33.0788L12.9279 33.5134C18.9724 33.8428 25.0277 33.8428 31.0721 33.5134L39.047 33.0788C39.932 33.0306 40.7665 32.6049 41.3776 31.8899C41.9886 31.1748 42.3294 30.2253 42.3294 29.238V27.9049V18.6084C42.3294 17.2091 42.1011 15.8215 41.6555 14.5132L41.2756 13.3979L42.5912 9.72768C42.8223 9.08301 42.9216 8.38908 42.882 7.6963C42.8424 7.00351 42.6647 6.32926 42.362 5.72251C42.0593 5.11577 41.6392 4.59176 41.132 4.18856C40.6249 3.78536 40.0435 3.51307 39.4302 3.39149Z" fill="#EBE8C0"/>
<path fill-rule="evenodd" clip-rule="evenodd" d="M9.18306 3.67296C17.6614 1.99235 26.3385 1.99235 34.8169 3.67296L39.2011 4.54202C39.6235 4.62575 40.0335 4.81501 40.3995 5.10598C40.7661 5.39743 41.0797 5.78435 41.3097 6.24529C41.5397 6.7064 41.6776 7.22511 41.7084 7.76319C41.7392 8.30126 41.6617 8.83797 41.4844 9.33264L40.0307 13.3881L40.5425 14.8907C40.9461 16.0759 41.1539 17.3359 41.1539 18.6085V29.238C41.1539 29.9617 40.903 30.6374 40.4831 31.1287C40.0663 31.6164 39.5248 31.878 38.9829 31.9076L31.008 32.3422C25.0062 32.6693 18.9937 32.6693 12.992 32.3422L5.01704 31.9076C4.47516 31.878 3.93362 31.6164 3.51682 31.1287C3.09694 30.6374 2.84602 29.9617 2.84602 29.238V18.6085C2.84602 17.3359 3.05379 16.0759 3.45744 14.8907L3.96923 13.3881L2.51554 9.33264C2.33822 8.83797 2.26074 8.30126 2.29153 7.76319C2.32232 7.22512 2.46018 6.7064 2.69023 6.24529C2.92019 5.78435 3.23386 5.39743 3.60043 5.10598C3.9664 4.81501 4.37643 4.62575 4.79883 4.54202L9.18306 3.67296ZM35.2749 1.37194C26.4942 -0.368609 17.5058 -0.368609 8.72502 1.37194L4.34078 2.241C3.53646 2.40043 2.78377 2.75573 2.13547 3.27117C1.48778 3.78613 0.961105 4.44722 0.585667 5.19977C0.21032 5.95214 -0.00707626 6.78193 -0.0555763 7.62944C-0.104076 8.47694 0.0171013 9.32809 0.301956 10.1228L1.4795 13.4078L1.23155 14.1358C0.744041 15.5672 0.495087 17.0824 0.495087 18.6085V29.238C0.495087 30.489 0.925816 31.7123 1.72803 32.651C2.53334 33.5933 3.66071 34.1831 4.88884 34.25L12.8638 34.6847C18.9509 35.0164 25.049 35.0164 31.1362 34.6847L39.1111 34.25C40.3392 34.1831 41.4666 33.5933 42.2719 32.651C43.0741 31.7123 43.5048 30.489 43.5048 29.238V18.6085C43.5048 17.0824 43.2559 15.5672 42.7684 14.1358L42.5204 13.4078L43.698 10.1228C43.9828 9.32809 44.104 8.47694 44.0555 7.62944C44.007 6.78193 43.7896 5.95214 43.4143 5.19977C43.0388 4.44722 42.5122 3.78613 41.8645 3.27117C41.2162 2.75573 40.4635 2.40043 39.6591 2.241L35.2749 1.37194Z" fill="#8F5B00"/>
<path fill-rule="evenodd" clip-rule="evenodd" d="M23.0272 4.61106C23.0185 4.90688 23.2517 5.15377 23.5481 5.1625C23.8869 5.17249 24.2256 5.1858 24.5641 5.20243C24.8604 5.21698 25.1123 4.98916 25.1269 4.69357C25.1415 4.39797 24.9132 4.14655 24.617 4.132C24.2713 4.11502 23.9256 4.10143 23.5798 4.09124C23.2834 4.08251 23.036 4.31523 23.0272 4.61106ZM21.0191 4.61106C21.0104 4.31523 20.763 4.08251 20.4665 4.09124C20.1207 4.10143 19.775 4.11502 19.4294 4.132C19.1332 4.14655 18.9049 4.39797 18.9195 4.69357C18.934 4.98916 19.186 5.21698 19.4822 5.20243C19.8208 5.1858 20.1595 5.17249 20.4982 5.1625C20.7947 5.15377 21.0279 4.90688 21.0191 4.61106ZM16.9176 4.85108C16.8856 4.55686 16.6206 4.34423 16.3258 4.37617C15.982 4.41342 15.6384 4.45404 15.2951 4.49803C15.001 4.53573 14.7931 4.80426 14.8309 5.0978C14.8687 5.39133 15.1378 5.59873 15.4319 5.56103C15.7683 5.51793 16.1049 5.47813 16.4417 5.44164C16.7365 5.4097 16.9496 5.1453 16.9176 4.85108ZM27.1288 4.85108C27.0968 5.1453 27.3098 5.4097 27.6047 5.44164C27.9415 5.47813 28.2781 5.51793 28.6144 5.56103C28.9086 5.59873 29.1777 5.39134 29.2154 5.0978C29.2532 4.80426 29.0454 4.53573 28.7512 4.49803C28.4079 4.45404 28.0644 4.41342 27.7206 4.37617C27.4257 4.34423 27.1608 4.55686 27.1288 4.85108ZM31.1988 5.41128C31.1439 5.70211 31.3356 5.98232 31.627 6.03715C31.7935 6.06848 31.9599 6.10063 32.1263 6.13359L32.5551 6.21859C32.846 6.27625 33.1286 6.08768 33.1864 5.7974C33.2442 5.50712 33.0552 5.22506 32.7643 5.1674L32.3355 5.0824C32.1658 5.04876 31.9959 5.01595 31.826 4.98398C31.5346 4.92915 31.2538 5.12046 31.1988 5.41128ZM12.8475 5.41128C12.7926 5.12046 12.5118 4.92915 12.2203 4.98398C12.0504 5.01595 11.8806 5.04876 11.7108 5.0824L11.282 5.1674C10.9911 5.22506 10.8022 5.50712 10.86 5.7974C10.9177 6.08768 11.2004 6.27625 11.4913 6.21859L11.9201 6.13359C12.0864 6.10063 12.2528 6.06848 12.4193 6.03715C12.7108 5.98232 12.9025 5.70211 12.8475 5.41128ZM9.34056 6.09858C9.28278 5.8083 9.00012 5.61973 8.70923 5.67739L8.28042 5.76239C8.20876 5.7766 8.13761 5.79302 8.06706 5.81162C7.78032 5.88721 7.60929 6.18045 7.68504 6.46658C7.76079 6.75271 8.05464 6.92339 8.34138 6.8478C8.39049 6.83485 8.43994 6.82344 8.48968 6.81358L8.91848 6.72858C9.20937 6.67092 9.39834 6.38886 9.34056 6.09858ZM34.7058 6.09858C34.648 6.38886 34.837 6.67092 35.1279 6.72858L35.5567 6.81358C35.6064 6.82344 35.6559 6.83485 35.705 6.8478C35.9917 6.92339 36.2856 6.75271 36.3613 6.46658C36.4371 6.18045 36.266 5.88721 35.9793 5.81162C35.9087 5.79302 35.8376 5.7766 35.7659 5.76239L35.3371 5.67739C35.0462 5.61973 34.7636 5.8083 34.7058 6.09858ZM36.4063 6.49064C36.2349 6.73215 36.2922 7.06659 36.5342 7.23765C36.5762 7.26733 36.6176 7.29837 36.6583 7.33075C36.7006 7.36441 36.7421 7.39941 36.7827 7.43571C37.0035 7.63324 37.343 7.61471 37.541 7.39433C37.7389 7.17395 37.7204 6.83517 37.4995 6.63764C37.4436 6.5876 37.3862 6.53921 37.3275 6.49254C37.2711 6.44764 37.2135 6.40446 37.1549 6.36306C36.9129 6.19201 36.5777 6.24913 36.4063 6.49064ZM7.64002 6.49064C7.46861 6.24913 7.13345 6.19201 6.89143 6.36306C6.83286 6.40446 6.7753 6.44764 6.71882 6.49254C6.66012 6.53921 6.60278 6.5876 6.54684 6.63764C6.32599 6.83517 6.30742 7.17395 6.50537 7.39433C6.70332 7.61471 7.04282 7.63324 7.26367 7.43571C7.30425 7.39941 7.34574 7.36441 7.38807 7.33075C7.4288 7.29837 7.47019 7.26733 7.51218 7.23765C7.7542 7.06659 7.81144 6.73215 7.64002 6.49064ZM37.6007 7.47396C37.3424 7.61927 37.251 7.94608 37.3966 8.2039C37.4237 8.25191 37.4497 8.30086 37.4746 8.3507C37.5003 8.40216 37.5246 8.45441 37.5477 8.50738C37.6657 8.77887 37.982 8.90345 38.2541 8.78564C38.5261 8.66782 38.651 8.35223 38.5329 8.08074C38.5024 8.01068 38.4701 7.94142 38.436 7.87306C38.403 7.80687 38.3684 7.74172 38.3322 7.67767C38.1866 7.41985 37.8591 7.32865 37.6007 7.47396ZM6.44561 7.47396C6.18724 7.32865 5.85975 7.41985 5.71413 7.67767C5.67796 7.74172 5.64334 7.80687 5.61031 7.87306C5.57621 7.94142 5.54392 8.01068 5.51345 8.08074C5.39539 8.35223 5.52023 8.66782 5.79229 8.78564C6.06435 8.90345 6.38061 8.77887 6.49868 8.50738C6.52171 8.45441 6.54608 8.40216 6.57175 8.3507C6.59662 8.30086 6.62263 8.25191 6.64975 8.2039C6.79537 7.94608 6.70397 7.61927 6.44561 7.47396ZM38.2887 8.92314C37.9938 8.95456 37.7803 9.21859 37.8118 9.51287C37.8179 9.5706 37.8227 9.6286 37.826 9.68681C37.8294 9.74528 37.8313 9.80377 37.8317 9.86222C37.834 10.1582 38.0762 10.3963 38.3728 10.394C38.6693 10.3918 38.9079 10.1501 38.9057 9.85412C38.9051 9.77803 38.9026 9.70186 38.8983 9.6257C38.894 9.5499 38.8877 9.47433 38.8797 9.39908C38.8482 9.1048 38.5836 8.89172 38.2887 8.92314ZM5.75764 8.92314C5.46274 8.89172 5.19815 9.1048 5.16666 9.39908C5.15861 9.47433 5.1524 9.5499 5.14806 9.6257C5.14371 9.70186 5.14125 9.77803 5.14067 9.85412C5.13843 10.1501 5.37703 10.3918 5.6736 10.394C5.97016 10.3963 6.21239 10.1582 6.21463 9.86222C6.21508 9.80377 6.21696 9.74528 6.22031 9.68681C6.22364 9.6286 6.2284 9.5706 6.23458 9.51287C6.26607 9.21859 6.05254 8.95456 5.75764 8.92314ZM5.69372 10.5407C5.40972 10.6259 5.24876 10.9248 5.33421 11.2082C5.35629 11.2814 5.38025 11.3541 5.40607 11.4262L5.53475 11.7852C5.63464 12.0638 5.94199 12.2089 6.22123 12.1092C6.50048 12.0096 6.64588 11.7029 6.546 11.4242L6.41732 11.0652C6.39771 11.0105 6.37948 10.9552 6.36266 10.8994C6.27721 10.616 5.97772 10.4554 5.69372 10.5407ZM38.3526 10.5407C38.0686 10.4554 37.7691 10.616 37.6837 10.8994C37.6669 10.9552 37.6486 11.0105 37.629 11.0652L37.5004 11.4242C37.4005 11.7029 37.5459 12.0096 37.8251 12.1092C38.1044 12.2089 38.4117 12.0638 38.5116 11.7852L38.6403 11.4262C38.6661 11.3541 38.6901 11.2814 38.7122 11.2082C38.7976 10.9248 38.6366 10.6259 38.3526 10.5407ZM37.4148 13.2539C37.1356 13.1543 36.8282 13.2993 36.7283 13.578L36.5366 14.1129L36.634 14.399C36.6765 14.5237 36.7604 14.6226 36.8653 14.6856C36.8206 14.7993 36.8144 14.9288 36.8569 15.0535L36.8941 15.1626C36.9354 15.2841 36.9743 15.4066 37.0106 15.5299C37.0942 15.8138 37.3927 15.9764 37.6772 15.8929C37.9618 15.8095 38.1247 15.5117 38.041 15.2277C38.0005 15.0901 37.9571 14.9534 37.9109 14.8177L37.8738 14.7086C37.8313 14.5839 37.7473 14.485 37.6424 14.422C37.678 14.3315 37.6892 14.2309 37.6708 14.1307L37.7396 13.939C37.8394 13.6603 37.694 13.3536 37.4148 13.2539ZM6.63156 13.2539C6.35231 13.3536 6.20691 13.6603 6.30679 13.939L6.37553 14.1307C6.35715 14.2309 6.36833 14.3315 6.40393 14.422C6.29905 14.485 6.21506 14.5839 6.17259 14.7086L6.13543 14.8177C6.08921 14.9534 6.04583 15.0901 6.00531 15.2277C5.9217 15.5117 6.08458 15.8095 6.36913 15.8929C6.65367 15.9764 6.95212 15.8138 7.03574 15.5299C7.07206 15.4066 7.11092 15.2841 7.1523 15.1626L7.18946 15.0535C7.23193 14.9288 7.22574 14.7993 7.18103 14.6856C7.28591 14.6226 7.3699 14.5237 7.41237 14.399L7.50979 14.1129L7.31804 13.578C7.21815 13.2993 6.91081 13.1543 6.63156 13.2539ZM6.14651 17.2514C5.85018 17.2394 5.60024 17.4694 5.58825 17.7651C5.58245 17.908 5.57955 18.0511 5.57955 18.1944V18.649C5.57955 18.945 5.81997 19.1849 6.11655 19.1849C6.41312 19.1849 6.65355 18.945 6.65355 18.649V18.1944C6.65355 18.0656 6.65615 17.9369 6.66137 17.8085C6.67336 17.5128 6.44285 17.2633 6.14651 17.2514ZM37.8998 17.2514C37.6035 17.2633 37.373 17.5128 37.385 17.8085C37.3902 17.9369 37.3928 18.0656 37.3928 18.1944V18.649C37.3928 18.945 37.6332 19.1849 37.9298 19.1849C38.2264 19.1849 38.4668 18.945 38.4668 18.649V18.1944C38.4668 18.0511 38.4639 17.908 38.4581 17.7651C38.4461 17.4694 38.1962 17.2394 37.8998 17.2514ZM37.9298 20.8409C37.6332 20.8409 37.3928 21.0808 37.3928 21.3768V22.286C37.3928 22.582 37.6332 22.8219 37.9298 22.8219C38.2264 22.8219 38.4668 22.582 38.4668 22.286V21.3768C38.4668 21.0808 38.2264 20.8409 37.9298 20.8409ZM6.11655 20.8409C5.81997 20.8409 5.57955 21.0808 5.57955 21.3768V22.286C5.57955 22.582 5.81997 22.8219 6.11655 22.8219C6.41312 22.8219 6.65355 22.582 6.65355 22.286V21.3768C6.65355 21.0808 6.41312 20.8409 6.11655 20.8409ZM37.9298 24.4779C37.6332 24.4779 37.3928 24.7178 37.3928 25.0138V25.5988C37.3928 25.7531 37.4582 25.8921 37.5628 25.9899C37.4582 26.0877 37.3928 26.2268 37.3928 26.3811V26.5114C37.3928 26.5906 37.3895 26.6694 37.3829 26.7475C37.3581 27.0424 37.5776 27.3016 37.8731 27.3264C38.1686 27.3511 38.4283 27.1321 38.4531 26.8372C38.4622 26.7293 38.4668 26.6206 38.4668 26.5114V26.3811C38.4668 26.2268 38.4015 26.0877 38.2969 25.9899C38.4015 25.8921 38.4668 25.7531 38.4668 25.5988V25.0138C38.4668 24.7178 38.2264 24.4779 37.9298 24.4779ZM6.11655 24.4779C5.81997 24.4779 5.57955 24.7178 5.57955 25.0138V25.5988C5.57955 25.7531 5.6449 25.8921 5.74949 25.9899C5.6449 26.0877 5.57955 26.2268 5.57955 26.3811V26.5114C5.57955 26.6206 5.58414 26.7293 5.59322 26.8372C5.61803 27.1321 5.87773 27.3511 6.17326 27.3264C6.4688 27.3016 6.68826 27.0424 6.66345 26.7475C6.65688 26.6694 6.65355 26.5906 6.65355 26.5114V26.3811C6.65355 26.2268 6.58819 26.0877 6.4836 25.9899C6.58819 25.8921 6.65355 25.7531 6.65355 25.5988V25.0138C6.65355 24.7178 6.41312 24.4779 6.11655 24.4779ZM37.6652 27.9249C37.4222 27.7552 37.0874 27.8142 36.9174 28.0567C36.8731 28.1198 36.8261 28.1805 36.7764 28.2386C36.7296 28.2935 36.6809 28.3454 36.6305 28.3944C36.4181 28.601 36.4138 28.9403 36.6208 29.1522C36.8278 29.3641 37.1678 29.3684 37.3801 29.1618C37.4543 29.0897 37.5255 29.0137 37.5936 28.9341C37.6658 28.8496 37.7337 28.7619 37.7973 28.6712C37.9674 28.4287 37.9082 28.0946 37.6652 27.9249ZM6.38114 27.9249C6.13815 28.0946 6.07901 28.4287 6.24904 28.6712C6.31265 28.7619 6.38058 28.8496 6.45274 28.9341C6.52082 29.0137 6.59205 29.0897 6.66621 29.1618C6.87858 29.3684 7.21856 29.3641 7.42558 29.1522C7.63259 28.9403 7.62825 28.601 7.41588 28.3944C7.36549 28.3454 7.31677 28.2935 7.26993 28.2386C7.22027 28.1805 7.17325 28.1198 7.12899 28.0567C6.95895 27.8142 6.62413 27.7552 6.38114 27.9249ZM36.1529 29.4012C36.1048 29.1092 35.8286 28.9114 35.5359 28.9594C35.4686 28.9704 35.4006 28.9778 35.3322 28.9816L34.5522 29.0241C34.2561 29.0402 34.0292 29.2929 34.0453 29.5884C34.0615 29.8839 34.3147 30.1104 34.6108 30.0942L35.3908 30.0517C35.4982 30.0459 35.6048 30.0342 35.7101 30.0169C36.0028 29.9689 36.201 29.6932 36.1529 29.4012ZM7.89345 29.4012C7.84533 29.6932 8.04356 29.9689 8.33621 30.0169C8.4416 30.0342 8.54816 30.0459 8.65555 30.0517L9.43554 30.0942C9.73168 30.1104 9.98485 29.8839 10.001 29.5884C10.0172 29.2929 9.79024 29.0402 9.49411 29.0241L8.71412 28.9816C8.64571 28.9778 8.57775 28.9704 8.51045 28.9594C8.2178 28.9114 7.94156 29.1092 7.89345 29.4012ZM30.4378 29.785C30.4216 29.4895 30.1684 29.263 29.8723 29.2791L29.0923 29.3216C28.8961 29.3323 28.6999 29.3426 28.5037 29.3524C28.2075 29.3672 27.9794 29.6188 27.9942 29.9144C28.0091 30.2099 28.2612 30.4376 28.5574 30.4228C28.7553 30.4129 28.9531 30.4026 29.1509 30.3918L29.9309 30.3493C30.227 30.3331 30.454 30.0805 30.4378 29.785ZM13.6086 29.785C13.5924 30.0805 13.8193 30.3331 14.1155 30.3493L14.8955 30.3918C15.0933 30.4026 15.2911 30.4129 15.4889 30.4228C15.7851 30.4376 16.0373 30.2099 16.0521 29.9144C16.0669 29.6188 15.8388 29.3672 15.5426 29.3524C15.3464 29.3426 15.1502 29.3323 14.954 29.3216L14.1741 29.2791C13.8779 29.263 13.6247 29.4895 13.6086 29.785ZM25.5189 30.0043C25.5122 29.7084 25.2664 29.474 24.9699 29.4807C24.577 29.4896 24.1842 29.4968 23.7913 29.5021C23.4947 29.5062 23.2576 29.7493 23.2617 30.0452C23.2657 30.3412 23.5094 30.5778 23.8059 30.5737C24.2021 30.5683 24.5982 30.5612 24.9943 30.5522C25.2908 30.5454 25.5257 30.3001 25.5189 30.0043ZM18.5274 30.0043C18.5207 30.3001 18.7556 30.5454 19.0521 30.5522C19.4482 30.5612 19.8443 30.5683 20.2404 30.5737C20.537 30.5778 20.7806 30.3412 20.7847 30.0452C20.7887 29.7493 20.5516 29.5062 20.2551 29.5021C19.8622 29.4968 19.4693 29.4896 19.0765 29.4807C18.78 29.474 18.5342 29.7084 18.5274 30.0043Z" fill="#FF2A2A"/>
<path d="M26.1317 14.9779L26.2939 14.9493C26.3041 14.9475 26.3108 14.9379 26.309 14.9278L26.2786 14.7562C26.2768 14.7461 26.2836 14.7365 26.2937 14.7347L26.4283 14.711C26.4384 14.7092 26.4481 14.7159 26.4498 14.726L26.4834 14.9159L26.67 14.883C26.6801 14.8812 26.6897 14.888 26.6915 14.8981L26.7153 15.0324C26.7171 15.0425 26.7103 15.0521 26.7002 15.0539L26.5137 15.0868L26.5449 15.2632C26.5467 15.2732 26.54 15.2829 26.5299 15.2846L26.3952 15.3084C26.3851 15.3101 26.3755 15.3034 26.3737 15.2933L26.3425 15.1169L26.1619 15.1488C26.1518 15.1505 26.1422 15.1438 26.1404 15.1337L26.1166 14.9994C26.1148 14.9893 26.1216 14.9797 26.1317 14.9779ZM27.2783 15.1844L27.116 15.213C27.1059 15.2148 27.0992 15.2244 27.1009 15.2345L27.1313 15.4061C27.1331 15.4162 27.1264 15.4258 27.1163 15.4276L26.9816 15.4513C26.9715 15.4531 26.9619 15.4464 26.9601 15.4363L26.9265 15.2464L26.74 15.2793C26.7299 15.2811 26.7202 15.2743 26.7184 15.2643L26.6947 15.1299C26.6929 15.1198 26.6996 15.1102 26.7097 15.1084L26.8963 15.0756L26.865 14.8992C26.8633 14.8891 26.87 14.8795 26.8801 14.8777L27.0147 14.854C27.0248 14.8522 27.0345 14.8589 27.0363 14.869L27.0675 15.0454L27.248 15.0136C27.2581 15.0118 27.2678 15.0185 27.2695 15.0286L27.2933 15.1629C27.2951 15.173 27.2884 15.1826 27.2783 15.1844ZM26.562 15.6185L26.3998 15.6471C26.3896 15.6488 26.3829 15.6585 26.3847 15.6685L26.4151 15.8402C26.4169 15.8503 26.4101 15.8599 26.4 15.8617L26.2654 15.8854C26.2553 15.8872 26.2456 15.8804 26.2439 15.8703L26.2103 15.6805L26.0237 15.7133C26.0136 15.7151 26.004 15.7084 26.0022 15.6983L25.9784 15.564C25.9766 15.5539 25.9834 15.5443 25.9935 15.5425L26.18 15.5096L26.1488 15.3332C26.147 15.3231 26.1537 15.3135 26.1638 15.3117L26.2985 15.288C26.3086 15.2862 26.3182 15.293 26.32 15.303L26.3512 15.4794L26.5318 15.4476C26.5419 15.4458 26.5515 15.4526 26.5533 15.4627L26.5771 15.597C26.5789 15.6071 26.5721 15.6167 26.562 15.6185ZM26.5667 15.6926L26.7289 15.664C26.7391 15.6623 26.7458 15.6526 26.744 15.6426L26.7136 15.4709C26.7119 15.4608 26.7186 15.4512 26.7287 15.4494L26.8633 15.4257C26.8734 15.4239 26.8831 15.4307 26.8848 15.4408L26.9185 15.6306L27.105 15.5978C27.1151 15.596 27.1247 15.6027 27.1265 15.6128L27.1503 15.7471C27.1521 15.7572 27.1453 15.7668 27.1352 15.7686L26.9487 15.8015L26.9799 15.9779C26.9817 15.988 26.975 15.9976 26.9649 15.9994L26.8302 16.0231C26.8201 16.0249 26.8105 16.0181 26.8087 16.0081L26.7775 15.8317L26.5969 15.8635C26.5868 15.8653 26.5772 15.8585 26.5754 15.8484L26.5516 15.7141C26.5499 15.704 26.5566 15.6944 26.5667 15.6926ZM25.8504 16.1267L26.0127 16.0981C26.0228 16.0963 26.0295 16.0867 26.0278 16.0766L25.9974 15.905C25.9956 15.8949 26.0023 15.8853 26.0124 15.8835L26.1471 15.8598C26.1572 15.858 26.1668 15.8647 26.1686 15.8748L26.2022 16.0647L26.3887 16.0318C26.3988 16.03 26.4085 16.0368 26.4103 16.0468L26.434 16.1812C26.4358 16.1913 26.4291 16.2009 26.419 16.2027L26.2324 16.2355L26.2637 16.4119C26.2654 16.422 26.2587 16.4316 26.2486 16.4334L26.114 16.4572C26.1039 16.4589 26.0942 16.4522 26.0924 16.4421L26.0612 16.2657L25.8807 16.2975C25.8706 16.2993 25.8609 16.2926 25.8592 16.2825L25.8354 16.1482C25.8336 16.1381 25.8403 16.1285 25.8504 16.1267ZM26.997 16.3332L26.8348 16.3618C26.8247 16.3636 26.8179 16.3732 26.8197 16.3833L26.8501 16.5549C26.8519 16.565 26.8451 16.5746 26.835 16.5764L26.7004 16.6001C26.6903 16.6019 26.6806 16.5952 26.6789 16.5851L26.6453 16.3952L26.4587 16.4281C26.4486 16.4299 26.439 16.4231 26.4372 16.413L26.4134 16.2787C26.4116 16.2686 26.4184 16.259 26.4285 16.2572L26.615 16.2243L26.5838 16.0479C26.582 16.0379 26.5887 16.0282 26.5989 16.0265L26.7335 16.0027C26.7436 16.001 26.7532 16.0077 26.755 16.0178L26.7862 16.1942L26.9668 16.1623C26.9769 16.1606 26.9865 16.1673 26.9883 16.1774L27.0121 16.3117C27.0139 16.3218 27.0071 16.3314 26.997 16.3332ZM26.2807 16.7673L26.1185 16.7959C26.1084 16.7976 26.1016 16.8073 26.1034 16.8173L26.1338 16.989C26.1356 16.9991 26.1289 17.0087 26.1187 17.0105L25.9841 17.0342C25.974 17.036 25.9644 17.0292 25.9626 17.0191L25.929 16.8293L25.7425 16.8621C25.7323 16.8639 25.7227 16.8572 25.7209 16.8471L25.6972 16.7128C25.6954 16.7027 25.7021 16.693 25.7122 16.6913L25.8988 16.6584L25.8675 16.482C25.8657 16.4719 25.8725 16.4623 25.8826 16.4605L26.0172 16.4368C26.0273 16.435 26.037 16.4417 26.0388 16.4518L26.07 16.6282L26.2505 16.5964C26.2606 16.5946 26.2703 16.6014 26.272 16.6114L26.2958 16.7458C26.2976 16.7559 26.2909 16.7655 26.2807 16.7673ZM26.2854 16.8414L26.4477 16.8128C26.4578 16.811 26.4645 16.8014 26.4628 16.7913L26.4324 16.6197C26.4306 16.6096 26.4373 16.6 26.4474 16.5982L26.5821 16.5745C26.5922 16.5727 26.6018 16.5795 26.6036 16.5895L26.6372 16.7794L26.8237 16.7465C26.8338 16.7448 26.8435 16.7515 26.8453 16.7616L26.869 16.8959C26.8708 16.906 26.8641 16.9156 26.854 16.9174L26.6674 16.9503L26.6987 17.1267C26.7005 17.1368 26.6937 17.1464 26.6836 17.1482L26.549 17.1719C26.5389 17.1737 26.5292 17.1669 26.5274 17.1568L26.4962 16.9805L26.3157 17.0123C26.3056 17.014 26.2959 17.0073 26.2942 16.9972L26.2704 16.8629C26.2686 16.8528 26.2753 16.8432 26.2854 16.8414ZM25.5692 17.2755L25.7314 17.2469C25.7415 17.2451 25.7483 17.2355 25.7465 17.2254L25.7161 17.0537C25.7143 17.0437 25.7211 17.034 25.7312 17.0323L25.8658 17.0086C25.8759 17.0068 25.8856 17.0135 25.8873 17.0236L25.9209 17.2135L26.1075 17.1806C26.1176 17.1788 26.1272 17.1855 26.129 17.1956L26.1528 17.33C26.1546 17.3401 26.1478 17.3497 26.1377 17.3515L25.9512 17.3843L25.9824 17.5607C25.9842 17.5708 25.9774 17.5804 25.9673 17.5822L25.8327 17.6059C25.8226 17.6077 25.813 17.601 25.8112 17.5909L25.78 17.4145L25.5994 17.4463C25.5893 17.4481 25.5797 17.4414 25.5779 17.4313L25.5541 17.2969C25.5523 17.2869 25.5591 17.2772 25.5692 17.2755ZM26.7158 17.482L26.5535 17.5106C26.5434 17.5124 26.5367 17.522 26.5384 17.5321L26.5688 17.7037C26.5706 17.7138 26.5639 17.7234 26.5537 17.7252L26.4191 17.7489C26.409 17.7507 26.3994 17.744 26.3976 17.7339L26.364 17.544L26.1775 17.5769C26.1674 17.5786 26.1577 17.5719 26.1559 17.5618L26.1322 17.4275C26.1304 17.4174 26.1371 17.4078 26.1472 17.406L26.3338 17.3731L26.3025 17.1967C26.3007 17.1866 26.3075 17.177 26.3176 17.1752L26.4522 17.1515C26.4623 17.1497 26.472 17.1565 26.4738 17.1666L26.505 17.3429L26.6855 17.3111C26.6956 17.3094 26.7053 17.3161 26.707 17.3262L26.7308 17.4605C26.7326 17.4706 26.7259 17.4802 26.7158 17.482ZM25.9995 17.9161L25.8372 17.9446C25.8271 17.9464 25.8204 17.956 25.8222 17.9661L25.8526 18.1378C25.8543 18.1479 25.8476 18.1575 25.8375 18.1593L25.7029 18.183C25.6928 18.1847 25.6831 18.178 25.6813 18.1679L25.6477 17.9781L25.4612 18.0109C25.4511 18.0127 25.4415 18.006 25.4397 17.9959L25.4159 17.8615C25.4141 17.8515 25.4209 17.8418 25.431 17.8401L25.6175 17.8072L25.5863 17.6308C25.5845 17.6207 25.5912 17.6111 25.6013 17.6093L25.736 17.5856C25.7461 17.5838 25.7557 17.5905 25.7575 17.6006L25.7887 17.777L25.9693 17.7452C25.9794 17.7434 25.989 17.7501 25.9908 17.7602L26.0146 17.8946C26.0163 17.9047 26.0096 17.9143 25.9995 17.9161ZM26.0042 17.9902L26.1664 17.9616C26.1765 17.9598 26.1833 17.9502 26.1815 17.9401L26.1511 17.7685C26.1493 17.7584 26.1561 17.7488 26.1662 17.747L26.3008 17.7233C26.3109 17.7215 26.3206 17.7282 26.3223 17.7383L26.3559 17.9282L26.5425 17.8953C26.5526 17.8935 26.5622 17.9003 26.564 17.9104L26.5878 18.0447C26.5896 18.0548 26.5828 18.0644 26.5727 18.0662L26.3862 18.0991L26.4174 18.2755C26.4192 18.2855 26.4125 18.2952 26.4023 18.2969L26.2677 18.3207C26.2576 18.3224 26.248 18.3157 26.2462 18.3056L26.215 18.1293L26.0344 18.1611C26.0243 18.1628 26.0147 18.1561 26.0129 18.146L25.9891 18.0117C25.9873 18.0016 25.9941 17.992 26.0042 17.9902ZM25.2879 18.4242L25.4502 18.3957C25.4603 18.3939 25.467 18.3843 25.4653 18.3742L25.4349 18.2025C25.4331 18.1924 25.4398 18.1828 25.4499 18.1811L25.5846 18.1573C25.5947 18.1556 25.6043 18.1623 25.6061 18.1724L25.6397 18.3623L25.8262 18.3294C25.8363 18.3276 25.846 18.3343 25.8478 18.3444L25.8715 18.4788C25.8733 18.4889 25.8666 18.4985 25.8565 18.5003L25.6699 18.5331L25.7012 18.7095C25.7029 18.7196 25.6962 18.7292 25.6861 18.731L25.5515 18.7547C25.5414 18.7565 25.5317 18.7498 25.5299 18.7397L25.4987 18.5633L25.3182 18.5951C25.3081 18.5969 25.2984 18.5902 25.2966 18.5801L25.2729 18.4457C25.2711 18.4356 25.2778 18.426 25.2879 18.4242ZM26.4345 18.6308L26.2722 18.6594C26.2621 18.6611 26.2554 18.6708 26.2572 18.6809L26.2876 18.8525C26.2893 18.8626 26.2826 18.8722 26.2725 18.874L26.1379 18.8977C26.1278 18.8995 26.1181 18.8927 26.1164 18.8827L26.0827 18.6928L25.8962 18.7256C25.8861 18.7274 25.8765 18.7207 25.8747 18.7106L25.8509 18.5763C25.8491 18.5662 25.8559 18.5566 25.866 18.5548L26.0525 18.5219L26.0213 18.3455C26.0195 18.3354 26.0262 18.3258 26.0363 18.324L26.171 18.3003C26.1811 18.2985 26.1907 18.3053 26.1925 18.3153L26.2237 18.4917L26.4043 18.4599C26.4144 18.4581 26.424 18.4649 26.4258 18.475L26.4496 18.6093C26.4513 18.6194 26.4446 18.629 26.4345 18.6308ZM25.7182 19.0648L25.556 19.0934C25.5459 19.0952 25.5391 19.1048 25.5409 19.1149L25.5713 19.2866C25.5731 19.2966 25.5663 19.3063 25.5562 19.308L25.4216 19.3317C25.4115 19.3335 25.4019 19.3268 25.4001 19.3167L25.3665 19.1268L25.1799 19.1597C25.1698 19.1615 25.1602 19.1548 25.1584 19.1447L25.1346 19.0103C25.1329 19.0002 25.1396 18.9906 25.1497 18.9888L25.3363 18.956L25.305 18.7796C25.3032 18.7695 25.31 18.7599 25.3201 18.7581L25.4547 18.7344C25.4648 18.7326 25.4745 18.7393 25.4762 18.7494L25.5075 18.9258L25.688 18.894C25.6981 18.8922 25.7077 18.8989 25.7095 18.909L25.7333 19.0434C25.7351 19.0534 25.7283 19.0631 25.7182 19.0648ZM25.7229 19.139L25.8852 19.1104C25.8953 19.1086 25.902 19.099 25.9003 19.0889L25.8699 18.9173C25.8681 18.9072 25.8748 18.8976 25.8849 18.8958L26.0196 18.8721C26.0297 18.8703 26.0393 18.877 26.0411 18.8871L26.0747 19.077L26.2612 19.0441C26.2713 19.0423 26.281 19.0491 26.2828 19.0592L26.3065 19.1935C26.3083 19.2036 26.3016 19.2132 26.2915 19.215L26.1049 19.2478L26.1362 19.4242C26.1379 19.4343 26.1312 19.4439 26.1211 19.4457L25.9865 19.4695C25.9764 19.4712 25.9667 19.4645 25.9649 19.4544L25.9337 19.278L25.7532 19.3098C25.7431 19.3116 25.7334 19.3049 25.7317 19.2948L25.7079 19.1605C25.7061 19.1504 25.7128 19.1408 25.7229 19.139ZM25.0067 19.573L25.1689 19.5445C25.179 19.5427 25.1858 19.5331 25.184 19.523L25.1536 19.3513C25.1518 19.3412 25.1586 19.3316 25.1687 19.3298L25.3033 19.3061C25.3134 19.3044 25.323 19.3111 25.3248 19.3212L25.3584 19.511L25.545 19.4782C25.5551 19.4764 25.5647 19.4831 25.5665 19.4932L25.5903 19.6276C25.5921 19.6376 25.5853 19.6473 25.5752 19.649L25.3887 19.6819L25.4199 19.8583C25.4217 19.8684 25.4149 19.878 25.4048 19.8798L25.2702 19.9035C25.2601 19.9053 25.2505 19.8986 25.2487 19.8885L25.2175 19.7121L25.0369 19.7439C25.0268 19.7457 25.0172 19.7389 25.0154 19.7289L24.9916 19.5945C24.9898 19.5844 24.9966 19.5748 25.0067 19.573ZM26.1532 19.7796L25.991 19.8082C25.9809 19.8099 25.9741 19.8196 25.9759 19.8296L26.0063 20.0013C26.0081 20.0114 26.0013 20.021 25.9912 20.0228L25.8566 20.0465C25.8465 20.0483 25.8369 20.0415 25.8351 20.0314L25.8015 19.8416L25.615 19.8744C25.6048 19.8762 25.5952 19.8695 25.5934 19.8594L25.5696 19.7251C25.5679 19.715 25.5746 19.7054 25.5847 19.7036L25.7713 19.6707L25.74 19.4943C25.7382 19.4842 25.745 19.4746 25.7551 19.4728L25.8897 19.4491C25.8998 19.4473 25.9095 19.454 25.9112 19.4641L25.9425 19.6405L26.123 19.6087C26.1331 19.6069 26.1427 19.6137 26.1445 19.6237L26.1683 19.7581C26.1701 19.7682 26.1633 19.7778 26.1532 19.7796ZM25.437 20.2136L25.2747 20.2422C25.2646 20.244 25.2579 20.2536 25.2597 20.2637L25.2901 20.4353C25.2918 20.4454 25.2851 20.455 25.275 20.4568L25.1404 20.4805C25.1303 20.4823 25.1206 20.4756 25.1188 20.4655L25.0852 20.2756L24.8987 20.3085C24.8886 20.3103 24.8789 20.3035 24.8772 20.2935L24.8534 20.1591C24.8516 20.149 24.8584 20.1394 24.8685 20.1376L25.055 20.1048L25.0238 19.9284C25.022 19.9183 25.0287 19.9087 25.0388 19.9069L25.1735 19.8832C25.1836 19.8814 25.1932 19.8881 25.195 19.8982L25.2262 20.0746L25.4067 20.0428C25.4169 20.041 25.4265 20.0477 25.4283 20.0578L25.4521 20.1921C25.4538 20.2022 25.4471 20.2119 25.437 20.2136ZM25.4417 20.2878L25.6039 20.2592C25.614 20.2574 25.6208 20.2478 25.619 20.2377L25.5886 20.066C25.5868 20.056 25.5936 20.0463 25.6037 20.0446L25.7383 20.0209C25.7484 20.0191 25.758 20.0258 25.7598 20.0359L25.7934 20.2258L25.98 20.1929C25.9901 20.1911 25.9997 20.1979 26.0015 20.2079L26.0253 20.3423C26.0271 20.3524 26.0203 20.362 26.0102 20.3638L25.8237 20.3966L25.8549 20.573C25.8567 20.5831 25.8499 20.5927 25.8398 20.5945L25.7052 20.6182C25.6951 20.62 25.6855 20.6133 25.6837 20.6032L25.6525 20.4268L25.4719 20.4586C25.4618 20.4604 25.4522 20.4537 25.4504 20.4436L25.4266 20.3092C25.4248 20.2992 25.4316 20.2895 25.4417 20.2878ZM24.7254 20.7218L24.8877 20.6932C24.8978 20.6915 24.9045 20.6818 24.9027 20.6718L24.8724 20.5001C24.8706 20.49 24.8773 20.4804 24.8874 20.4786L25.022 20.4549C25.0322 20.4531 25.0418 20.4599 25.0436 20.47L25.0772 20.6598L25.2637 20.627C25.2738 20.6252 25.2835 20.6319 25.2852 20.642L25.309 20.7763C25.3108 20.7864 25.3041 20.796 25.294 20.7978L25.1074 20.8307L25.1386 21.0071C25.1404 21.0172 25.1337 21.0268 25.1236 21.0286L24.989 21.0523C24.9788 21.0541 24.9692 21.0473 24.9674 21.0373L24.9362 20.8609L24.7557 20.8927C24.7456 20.8945 24.7359 20.8877 24.7341 20.8777L24.7104 20.7433C24.7086 20.7332 24.7153 20.7236 24.7254 20.7218ZM25.872 20.9284L25.7097 20.9569C25.6996 20.9587 25.6929 20.9683 25.6947 20.9784L25.7251 21.1501C25.7268 21.1602 25.7201 21.1698 25.71 21.1716L25.5754 21.1953C25.5653 21.197 25.5556 21.1903 25.5538 21.1802L25.5202 20.9904L25.3337 21.0232C25.3236 21.025 25.314 21.0183 25.3122 21.0082L25.2884 20.8738C25.2866 20.8638 25.2934 20.8541 25.3035 20.8524L25.49 20.8195L25.4588 20.6431C25.457 20.633 25.4637 20.6234 25.4738 20.6216L25.6085 20.5979C25.6186 20.5961 25.6282 20.6028 25.63 20.6129L25.6612 20.7893L25.8418 20.7575C25.8519 20.7557 25.8615 20.7624 25.8633 20.7725L25.8871 20.9069C25.8888 20.917 25.8821 20.9266 25.872 20.9284ZM25.1557 21.3624L24.9935 21.391C24.9834 21.3928 24.9766 21.4024 24.9784 21.4125L25.0088 21.5841C25.0106 21.5942 25.0038 21.6038 24.9937 21.6056L24.8591 21.6293C24.849 21.6311 24.8394 21.6244 24.8376 21.6143L24.804 21.4244L24.6174 21.4573C24.6073 21.4591 24.5977 21.4523 24.5959 21.4422L24.5721 21.3079C24.5704 21.2978 24.5771 21.2882 24.5872 21.2864L24.7737 21.2535L24.7425 21.0772C24.7407 21.0671 24.7475 21.0574 24.7576 21.0557L24.8922 21.0319C24.9023 21.0302 24.912 21.0369 24.9137 21.047L24.9449 21.2234L25.1255 21.1916C25.1356 21.1898 25.1452 21.1965 25.147 21.2066L25.1708 21.3409C25.1726 21.351 25.1658 21.3606 25.1557 21.3624ZM25.1604 21.4366L25.3227 21.408C25.3328 21.4062 25.3395 21.3966 25.3377 21.3865L25.3074 21.2148C25.3056 21.2048 25.3123 21.1951 25.3224 21.1934L25.4571 21.1696C25.4672 21.1679 25.4768 21.1746 25.4786 21.1847L25.5122 21.3746L25.6987 21.3417C25.7088 21.3399 25.7185 21.3466 25.7203 21.3567L25.744 21.4911C25.7458 21.5012 25.7391 21.5108 25.729 21.5126L25.5424 21.5454L25.5737 21.7218C25.5754 21.7319 25.5687 21.7415 25.5586 21.7433L25.424 21.767C25.4139 21.7688 25.4042 21.7621 25.4024 21.752L25.3712 21.5756L25.1907 21.6074C25.1806 21.6092 25.1709 21.6025 25.1691 21.5924L25.1454 21.458C25.1436 21.4479 25.1503 21.4383 25.1604 21.4366ZM24.4442 21.8706L24.6064 21.842C24.6165 21.8402 24.6233 21.8306 24.6215 21.8205L24.5911 21.6489C24.5893 21.6388 24.5961 21.6292 24.6062 21.6274L24.7408 21.6037C24.7509 21.6019 24.7605 21.6087 24.7623 21.6187L24.7959 21.8086L24.9825 21.7757C24.9926 21.774 25.0022 21.7807 25.004 21.7908L25.0278 21.9251C25.0296 21.9352 25.0228 21.9448 25.0127 21.9466L24.8262 21.9795L24.8574 22.1559C24.8592 22.166 24.8524 22.1756 24.8423 22.1774L24.7077 22.2011C24.6976 22.2029 24.688 22.1961 24.6862 22.186L24.655 22.0097L24.4744 22.0415C24.4643 22.0433 24.4547 22.0365 24.4529 22.0264L24.4291 21.8921C24.4273 21.882 24.4341 21.8724 24.4442 21.8706ZM25.5907 22.0771L25.4285 22.1057C25.4184 22.1075 25.4116 22.1171 25.4134 22.1272L25.4438 22.2989C25.4456 22.3089 25.4388 22.3186 25.4287 22.3203L25.2941 22.3441C25.284 22.3458 25.2744 22.3391 25.2726 22.329L25.239 22.1391L25.0524 22.172C25.0423 22.1738 25.0327 22.1671 25.0309 22.157L25.0071 22.0226C25.0054 22.0125 25.0121 22.0029 25.0222 22.0011L25.2087 21.9683L25.1775 21.7919C25.1757 21.7818 25.1825 21.7722 25.1926 21.7704L25.3272 21.7467C25.3373 21.7449 25.347 21.7516 25.3487 21.7617L25.38 21.9381L25.5605 21.9063C25.5706 21.9045 25.5802 21.9112 25.582 21.9213L25.6058 22.0557C25.6076 22.0657 25.6008 22.0754 25.5907 22.0771ZM24.8745 22.5112L24.7122 22.5398C24.7021 22.5416 24.6954 22.5512 24.6972 22.5613L24.7275 22.7329C24.7293 22.743 24.7226 22.7526 24.7125 22.7544L24.5779 22.7781C24.5678 22.7799 24.5581 22.7732 24.5563 22.7631L24.5227 22.5732L24.3362 22.6061C24.3261 22.6078 24.3164 22.6011 24.3147 22.591L24.2909 22.4567C24.2891 22.4466 24.2958 22.437 24.3059 22.4352L24.4925 22.4023L24.4613 22.2259C24.4595 22.2159 24.4662 22.2062 24.4763 22.2045L24.611 22.1807C24.6211 22.1789 24.6307 22.1857 24.6325 22.1958L24.6637 22.3721L24.8442 22.3403C24.8543 22.3386 24.864 22.3453 24.8658 22.3554L24.8895 22.4897C24.8913 22.4998 24.8846 22.5094 24.8745 22.5112ZM24.8792 22.5853L25.0414 22.5568C25.0515 22.555 25.0583 22.5454 25.0565 22.5353L25.0261 22.3636C25.0243 22.3535 25.0311 22.3439 25.0412 22.3421L25.1758 22.3184C25.1859 22.3167 25.1955 22.3234 25.1973 22.3335L25.2309 22.5233L25.4175 22.4905C25.4276 22.4887 25.4372 22.4954 25.439 22.5055L25.4628 22.6399C25.4646 22.6499 25.4578 22.6596 25.4477 22.6613L25.2612 22.6942L25.2924 22.8706C25.2942 22.8807 25.2874 22.8903 25.2773 22.8921L25.1427 22.9158C25.1326 22.9176 25.123 22.9109 25.1212 22.9008L25.09 22.7244L24.9094 22.7562C24.8993 22.758 24.8897 22.7513 24.8879 22.7412L24.8641 22.6068C24.8623 22.5967 24.8691 22.5871 24.8792 22.5853ZM24.1629 23.0194L24.3252 22.9908C24.3353 22.989 24.342 22.9794 24.3402 22.9693L24.3099 22.7977C24.3081 22.7876 24.3148 22.778 24.3249 22.7762L24.4595 22.7525C24.4696 22.7507 24.4793 22.7574 24.4811 22.7675L24.5147 22.9574L24.7012 22.9245C24.7113 22.9228 24.721 22.9295 24.7227 22.9396L24.7465 23.0739C24.7483 23.084 24.7416 23.0936 24.7315 23.0954L24.5449 23.1283L24.5761 23.3047C24.5779 23.3147 24.5712 23.3244 24.5611 23.3261L24.4264 23.3499C24.4163 23.3517 24.4067 23.3449 24.4049 23.3348L24.3737 23.1585L24.1932 23.1903C24.1831 23.192 24.1734 23.1853 24.1716 23.1752L24.1479 23.0409C24.1461 23.0308 24.1528 23.0212 24.1629 23.0194ZM25.3095 23.2259L25.1472 23.2545C25.1371 23.2563 25.1304 23.2659 25.1322 23.276L25.1625 23.4476C25.1643 23.4577 25.1576 23.4674 25.1475 23.4691L25.0129 23.4928C25.0028 23.4946 24.9931 23.4879 24.9913 23.4778L24.9577 23.2879L24.7712 23.3208C24.7611 23.3226 24.7514 23.3158 24.7497 23.3058L24.7259 23.1714C24.7241 23.1613 24.7308 23.1517 24.741 23.1499L24.9275 23.1171L24.8963 22.9407C24.8945 22.9306 24.9012 22.921 24.9113 22.9192L25.046 22.8955C25.0561 22.8937 25.0657 22.9004 25.0675 22.9105L25.0987 23.0869L25.2792 23.0551C25.2894 23.0533 25.299 23.06 25.3008 23.0701L25.3246 23.2045C25.3263 23.2145 25.3196 23.2242 25.3095 23.2259ZM24.5932 23.66L24.431 23.6886C24.4209 23.6904 24.4141 23.7 24.4159 23.7101L24.4463 23.8817C24.4481 23.8918 24.4413 23.9014 24.4312 23.9032L24.2966 23.9269C24.2865 23.9287 24.2769 23.9219 24.2751 23.9119L24.2415 23.722L24.0549 23.7549C24.0448 23.7566 24.0352 23.7499 24.0334 23.7398L24.0096 23.6055C24.0078 23.5954 24.0146 23.5858 24.0247 23.584L24.2112 23.5511L24.18 23.3747C24.1782 23.3646 24.185 23.355 24.1951 23.3532L24.3297 23.3295C24.3398 23.3277 24.3494 23.3345 24.3512 23.3446L24.3824 23.5209L24.563 23.4891C24.5731 23.4873 24.5827 23.4941 24.5845 23.5042L24.6083 23.6385C24.6101 23.6486 24.6033 23.6582 24.5932 23.66ZM24.5979 23.7341L24.7602 23.7055C24.7703 23.7038 24.777 23.6941 24.7752 23.6841L24.7449 23.5124C24.7431 23.5023 24.7498 23.4927 24.7599 23.4909L24.8945 23.4672C24.9046 23.4654 24.9143 23.4722 24.9161 23.4823L24.9497 23.6721L25.1362 23.6393C25.1463 23.6375 25.156 23.6442 25.1577 23.6543L25.1815 23.7886C25.1833 23.7987 25.1766 23.8083 25.1665 23.8101L24.9799 23.843L25.0111 24.0194C25.0129 24.0295 25.0062 24.0391 24.9961 24.0409L24.8614 24.0646C24.8513 24.0664 24.8417 24.0597 24.8399 24.0496L24.8087 23.8732L24.6282 23.905C24.6181 23.9068 24.6084 23.9 24.6066 23.89L24.5829 23.7556C24.5811 23.7455 24.5878 23.7359 24.5979 23.7341ZM23.8817 24.1682L24.0439 24.1396C24.054 24.1378 24.0608 24.1282 24.059 24.1181L24.0286 23.9465C24.0268 23.9364 24.0336 23.9268 24.0437 23.925L24.1783 23.9013C24.1884 23.8995 24.198 23.9062 24.1998 23.9163L24.2334 24.1062L24.42 24.0733C24.4301 24.0715 24.4397 24.0783 24.4415 24.0884L24.4653 24.2227C24.467 24.2328 24.4603 24.2424 24.4502 24.2442L24.2637 24.2771L24.2949 24.4534C24.2967 24.4635 24.2899 24.4732 24.2798 24.4749L24.1452 24.4987C24.1351 24.5004 24.1254 24.4937 24.1237 24.4836L24.0925 24.3072L23.9119 24.339C23.9018 24.3408 23.8922 24.3341 23.8904 24.324L23.8666 24.1897C23.8648 24.1796 23.8716 24.17 23.8817 24.1682ZM25.0282 24.3747L24.866 24.4033C24.8559 24.4051 24.8491 24.4147 24.8509 24.4248L24.8813 24.5964C24.8831 24.6065 24.8763 24.6161 24.8662 24.6179L24.7316 24.6416C24.7215 24.6434 24.7119 24.6367 24.7101 24.6266L24.6765 24.4367L24.4899 24.4696C24.4798 24.4714 24.4702 24.4646 24.4684 24.4545L24.4446 24.3202C24.4428 24.3101 24.4496 24.3005 24.4597 24.2987L24.6462 24.2659L24.615 24.0895C24.6132 24.0794 24.62 24.0698 24.6301 24.068L24.7647 24.0442C24.7748 24.0425 24.7845 24.0492 24.7862 24.0593L24.8174 24.2357L24.998 24.2039C25.0081 24.2021 25.0177 24.2088 25.0195 24.2189L25.0433 24.3532C25.0451 24.3633 25.0383 24.3729 25.0282 24.3747ZM24.312 24.8088L24.1497 24.8374C24.1396 24.8391 24.1329 24.8488 24.1347 24.8588L24.165 25.0305C24.1668 25.0406 24.1601 25.0502 24.15 25.052L24.0154 25.0757C24.0052 25.0775 23.9956 25.0707 23.9938 25.0606L23.9602 24.8708L23.7737 24.9036C23.7636 24.9054 23.7539 24.8987 23.7522 24.8886L23.7284 24.7543C23.7266 24.7442 23.7333 24.7346 23.7434 24.7328L23.93 24.6999L23.8988 24.5235C23.897 24.5134 23.9037 24.5038 23.9138 24.502L24.0484 24.4783C24.0586 24.4765 24.0682 24.4833 24.07 24.4933L24.1012 24.6697L24.2817 24.6379C24.2918 24.6361 24.3015 24.6429 24.3033 24.6529L24.327 24.7873C24.3288 24.7974 24.3221 24.807 24.312 24.8088ZM24.3167 24.8829L24.4789 24.8543C24.489 24.8525 24.4958 24.8429 24.494 24.8328L24.4636 24.6612C24.4618 24.6511 24.4686 24.6415 24.4787 24.6397L24.6133 24.616C24.6234 24.6142 24.633 24.621 24.6348 24.631L24.6684 24.8209L24.855 24.788C24.8651 24.7863 24.8747 24.793 24.8765 24.8031L24.9003 24.9374C24.9021 24.9475 24.8953 24.9571 24.8852 24.9589L24.6987 24.9918L24.7299 25.1682C24.7317 25.1783 24.7249 25.1879 24.7148 25.1897L24.5802 25.2134C24.5701 25.2152 24.5605 25.2084 24.5587 25.1984L24.5275 25.022L24.3469 25.0538C24.3368 25.0556 24.3272 25.0488 24.3254 25.0387L24.3016 24.9044C24.2998 24.8943 24.3066 24.8847 24.3167 24.8829Z" fill="#FF2A2A"/>
<path d="M29.261 14.9961L29.4233 14.9676C29.4334 14.9658 29.4401 14.9562 29.4383 14.9461L29.408 14.7744C29.4062 14.7643 29.4129 14.7547 29.423 14.7529L29.5576 14.7292C29.5678 14.7275 29.5774 14.7342 29.5792 14.7443L29.6128 14.9341L29.7993 14.9013C29.8094 14.8995 29.8191 14.9062 29.8209 14.9163L29.8446 15.0507C29.8464 15.0607 29.8397 15.0704 29.8296 15.0721L29.643 15.105L29.6743 15.2814C29.676 15.2915 29.6693 15.3011 29.6592 15.3029L29.5246 15.3266C29.5144 15.3284 29.5048 15.3217 29.503 15.3116L29.4718 15.1352L29.2913 15.167C29.2812 15.1688 29.2715 15.162 29.2697 15.152L29.246 15.0176C29.2442 15.0075 29.2509 14.9979 29.261 14.9961ZM30.4076 15.2027L30.2453 15.2313C30.2352 15.233 30.2285 15.2427 30.2303 15.2527L30.2607 15.4244C30.2624 15.4345 30.2557 15.4441 30.2456 15.4459L30.111 15.4696C30.1009 15.4714 30.0912 15.4646 30.0894 15.4545L30.0558 15.2647L29.8693 15.2975C29.8592 15.2993 29.8496 15.2926 29.8478 15.2825L29.824 15.1482C29.8222 15.1381 29.829 15.1285 29.8391 15.1267L30.0256 15.0938L29.9944 14.9174C29.9926 14.9073 29.9993 14.8977 30.0094 14.8959L30.1441 14.8722C30.1542 14.8704 30.1638 14.8772 30.1656 14.8872L30.1968 15.0636L30.3774 15.0318C30.3875 15.03 30.3971 15.0368 30.3989 15.0468L30.4227 15.1812C30.4244 15.1913 30.4177 15.2009 30.4076 15.2027ZM29.6913 15.6367L29.5291 15.6653C29.519 15.6671 29.5122 15.6767 29.514 15.6868L29.5444 15.8584C29.5462 15.8685 29.5394 15.8782 29.5293 15.8799L29.3947 15.9036C29.3846 15.9054 29.375 15.8987 29.3732 15.8886L29.3396 15.6987L29.153 15.7316C29.1429 15.7334 29.1333 15.7266 29.1315 15.7166L29.1077 15.5822C29.106 15.5721 29.1127 15.5625 29.1228 15.5607L29.3093 15.5279L29.2781 15.3515C29.2763 15.3414 29.2831 15.3318 29.2932 15.33L29.4278 15.3063C29.4379 15.3045 29.4476 15.3112 29.4493 15.3213L29.4806 15.4977L29.6611 15.4659C29.6712 15.4641 29.6808 15.4708 29.6826 15.4809L29.7064 15.6153C29.7082 15.6253 29.7014 15.635 29.6913 15.6367ZM29.696 15.7109L29.8583 15.6823C29.8684 15.6805 29.8751 15.6709 29.8734 15.6608L29.843 15.4892C29.8412 15.4791 29.8479 15.4694 29.858 15.4677L29.9927 15.444C30.0028 15.4422 30.0124 15.4489 30.0142 15.459L30.0478 15.6489L30.2343 15.616C30.2444 15.6142 30.2541 15.621 30.2559 15.631L30.2796 15.7654C30.2814 15.7755 30.2747 15.7851 30.2646 15.7869L30.078 15.8197L30.1093 15.9961C30.111 16.0062 30.1043 16.0158 30.0942 16.0176L29.9596 16.0413C29.9495 16.0431 29.9398 16.0364 29.938 16.0263L29.9068 15.8499L29.7263 15.8817C29.7162 15.8835 29.7065 15.8768 29.7047 15.8667L29.681 15.7323C29.6792 15.7223 29.6859 15.7126 29.696 15.7109ZM28.9798 16.1449L29.142 16.1163C29.1521 16.1146 29.1589 16.1049 29.1571 16.0949L29.1267 15.9232C29.1249 15.9131 29.1317 15.9035 29.1418 15.9017L29.2764 15.878C29.2865 15.8762 29.2961 15.883 29.2979 15.8931L29.3315 16.0829L29.5181 16.0501C29.5282 16.0483 29.5378 16.055 29.5396 16.0651L29.5634 16.1994C29.5652 16.2095 29.5584 16.2191 29.5483 16.2209L29.3618 16.2538L29.393 16.4302C29.3948 16.4403 29.388 16.4499 29.3779 16.4517L29.2433 16.4754C29.2332 16.4772 29.2236 16.4704 29.2218 16.4604L29.1906 16.284L29.01 16.3158C28.9999 16.3176 28.9903 16.3108 28.9885 16.3008L28.9647 16.1664C28.9629 16.1563 28.9697 16.1467 28.9798 16.1449ZM30.1263 16.3515L29.9641 16.38C29.954 16.3818 29.9472 16.3914 29.949 16.4015L29.9794 16.5732C29.9812 16.5833 29.9744 16.5929 29.9643 16.5947L29.8297 16.6184C29.8196 16.6201 29.81 16.6134 29.8082 16.6033L29.7746 16.4135L29.588 16.4463C29.5779 16.4481 29.5683 16.4414 29.5665 16.4313L29.5427 16.2969C29.541 16.2869 29.5477 16.2772 29.5578 16.2755L29.7444 16.2426L29.7131 16.0662C29.7113 16.0561 29.7181 16.0465 29.7282 16.0447L29.8628 16.021C29.8729 16.0192 29.8826 16.0259 29.8843 16.036L29.9156 16.2124L30.0961 16.1806C30.1062 16.1788 30.1158 16.1855 30.1176 16.1956L30.1414 16.33C30.1432 16.3401 30.1364 16.3497 30.1263 16.3515ZM29.4101 16.7855L29.2478 16.8141C29.2377 16.8159 29.231 16.8255 29.2328 16.8356L29.2631 17.0072C29.2649 17.0173 29.2582 17.0269 29.2481 17.0287L29.1135 17.0524C29.1034 17.0542 29.0937 17.0475 29.0919 17.0374L29.0583 16.8475L28.8718 16.8804C28.8617 16.8822 28.852 16.8754 28.8503 16.8653L28.8265 16.731C28.8247 16.7209 28.8314 16.7113 28.8416 16.7095L29.0281 16.6766L28.9969 16.5003C28.9951 16.4902 29.0018 16.4806 29.0119 16.4788L29.1466 16.455C29.1567 16.4533 29.1663 16.46 29.1681 16.4701L29.1993 16.6465L29.3798 16.6147C29.3899 16.6129 29.3996 16.6196 29.4014 16.6297L29.4251 16.764C29.4269 16.7741 29.4202 16.7837 29.4101 16.7855ZM29.4148 16.8597L29.577 16.8311C29.5871 16.8293 29.5939 16.8197 29.5921 16.8096L29.5617 16.6379C29.5599 16.6279 29.5667 16.6182 29.5768 16.6165L29.7114 16.5927C29.7215 16.591 29.7311 16.5977 29.7329 16.6078L29.7665 16.7977L29.9531 16.7648C29.9632 16.763 29.9728 16.7697 29.9746 16.7798L29.9984 16.9142C30.0002 16.9243 29.9934 16.9339 29.9833 16.9357L29.7968 16.9685L29.828 17.1449C29.8298 17.155 29.823 17.1646 29.8129 17.1664L29.6783 17.1901C29.6682 17.1919 29.6586 17.1852 29.6568 17.1751L29.6256 16.9987L29.445 17.0305C29.4349 17.0323 29.4253 17.0256 29.4235 17.0155L29.3997 16.8811C29.3979 16.8711 29.4047 16.8614 29.4148 16.8597ZM28.6985 17.2937L28.8608 17.2651C28.8709 17.2633 28.8776 17.2537 28.8758 17.2436L28.8455 17.072C28.8437 17.0619 28.8504 17.0523 28.8605 17.0505L28.9951 17.0268C29.0052 17.025 29.0149 17.0318 29.0167 17.0418L29.0503 17.2317L29.2368 17.1988C29.2469 17.1971 29.2566 17.2038 29.2583 17.2139L29.2821 17.3482C29.2839 17.3583 29.2772 17.3679 29.2671 17.3697L29.0805 17.4026L29.1117 17.579C29.1135 17.5891 29.1068 17.5987 29.0967 17.6005L28.962 17.6242C28.9519 17.626 28.9423 17.6192 28.9405 17.6092L28.9093 17.4328L28.7288 17.4646C28.7187 17.4664 28.709 17.4596 28.7072 17.4495L28.6835 17.3152C28.6817 17.3051 28.6884 17.2955 28.6985 17.2937ZM29.8451 17.5003L29.6828 17.5288C29.6727 17.5306 29.666 17.5402 29.6678 17.5503L29.6982 17.722C29.6999 17.732 29.6932 17.7417 29.6831 17.7434L29.5485 17.7672C29.5384 17.7689 29.5287 17.7622 29.5269 17.7521L29.4933 17.5622L29.3068 17.5951C29.2967 17.5969 29.287 17.5902 29.2853 17.5801L29.2615 17.4457C29.2597 17.4356 29.2664 17.426 29.2766 17.4242L29.4631 17.3914L29.4319 17.215C29.4301 17.2049 29.4368 17.1953 29.4469 17.1935L29.5816 17.1698C29.5917 17.168 29.6013 17.1747 29.6031 17.1848L29.6343 17.3612L29.8148 17.3294C29.825 17.3276 29.8346 17.3343 29.8364 17.3444L29.8602 17.4788C29.8619 17.4889 29.8552 17.4985 29.8451 17.5003ZM29.1288 17.9343L28.9666 17.9629C28.9565 17.9647 28.9497 17.9743 28.9515 17.9844L28.9819 18.156C28.9837 18.1661 28.9769 18.1757 28.9668 18.1775L28.8322 18.2012C28.8221 18.203 28.8125 18.1963 28.8107 18.1862L28.7771 17.9963L28.5905 18.0292C28.5804 18.031 28.5708 18.0242 28.569 18.0141L28.5452 17.8798C28.5434 17.8697 28.5502 17.8601 28.5603 17.8583L28.7468 17.8254L28.7156 17.649C28.7138 17.639 28.7206 17.6293 28.7307 17.6276L28.8653 17.6038C28.8754 17.602 28.885 17.6088 28.8868 17.6189L28.918 17.7952L29.0986 17.7634C29.1087 17.7617 29.1183 17.7684 29.1201 17.7785L29.1439 17.9128C29.1457 17.9229 29.1389 17.9325 29.1288 17.9343ZM29.1335 18.0084L29.2958 17.9799C29.3059 17.9781 29.3126 17.9685 29.3108 17.9584L29.2805 17.7867C29.2787 17.7766 29.2854 17.767 29.2955 17.7652L29.4301 17.7415C29.4403 17.7398 29.4499 17.7465 29.4517 17.7566L29.4853 17.9464L29.6718 17.9136C29.6819 17.9118 29.6916 17.9185 29.6933 17.9286L29.7171 18.063C29.7189 18.073 29.7122 18.0827 29.7021 18.0844L29.5155 18.1173L29.5467 18.2937C29.5485 18.3038 29.5418 18.3134 29.5317 18.3152L29.3971 18.3389C29.3869 18.3407 29.3773 18.334 29.3755 18.3239L29.3443 18.1475L29.1638 18.1793C29.1537 18.1811 29.144 18.1744 29.1422 18.1643L29.1185 18.0299C29.1167 18.0198 29.1234 18.0102 29.1335 18.0084ZM28.4173 18.4425L28.5795 18.4139C28.5896 18.4121 28.5964 18.4025 28.5946 18.3924L28.5642 18.2208C28.5624 18.2107 28.5692 18.2011 28.5793 18.1993L28.7139 18.1756C28.724 18.1738 28.7336 18.1805 28.7354 18.1906L28.769 18.3805L28.9556 18.3476C28.9657 18.3459 28.9753 18.3526 28.9771 18.3627L29.0009 18.497C29.0027 18.5071 28.9959 18.5167 28.9858 18.5185L28.7993 18.5514L28.8305 18.7278C28.8323 18.7378 28.8255 18.7475 28.8154 18.7492L28.6808 18.773C28.6707 18.7748 28.661 18.768 28.6593 18.7579L28.6281 18.5816L28.4475 18.6134C28.4374 18.6151 28.4278 18.6084 28.426 18.5983L28.4022 18.464C28.4004 18.4539 28.4072 18.4443 28.4173 18.4425ZM29.5638 18.649L29.4016 18.6776C29.3915 18.6794 29.3847 18.689 29.3865 18.6991L29.4169 18.8708C29.4187 18.8808 29.4119 18.8905 29.4018 18.8922L29.2672 18.9159C29.2571 18.9177 29.2475 18.911 29.2457 18.9009L29.2121 18.711L29.0255 18.7439C29.0154 18.7457 29.0058 18.7389 29.004 18.7289L28.9802 18.5945C28.9785 18.5844 28.9852 18.5748 28.9953 18.573L29.1818 18.5402L29.1506 18.3638C29.1488 18.3537 29.1556 18.3441 29.1657 18.3423L29.3003 18.3186C29.3104 18.3168 29.3201 18.3235 29.3218 18.3336L29.353 18.51L29.5336 18.4782C29.5437 18.4764 29.5533 18.4831 29.5551 18.4932L29.5789 18.6276C29.5807 18.6376 29.5739 18.6473 29.5638 18.649ZM28.8476 19.0831L28.6853 19.1117C28.6752 19.1135 28.6685 19.1231 28.6703 19.1332L28.7006 19.3048C28.7024 19.3149 28.6957 19.3245 28.6856 19.3263L28.551 19.35C28.5408 19.3518 28.5312 19.345 28.5294 19.335L28.4958 19.1451L28.3093 19.178C28.2992 19.1797 28.2895 19.173 28.2878 19.1629L28.264 19.0286C28.2622 19.0185 28.2689 19.0089 28.279 19.0071L28.4656 18.9742L28.4344 18.7978C28.4326 18.7877 28.4393 18.7781 28.4494 18.7763L28.584 18.7526C28.5942 18.7508 28.6038 18.7576 28.6056 18.7677L28.6368 18.944L28.8173 18.9122C28.8274 18.9104 28.8371 18.9172 28.8389 18.9273L28.8626 19.0616C28.8644 19.0717 28.8577 19.0813 28.8476 19.0831ZM28.8523 19.1572L29.0145 19.1286C29.0246 19.1269 29.0314 19.1172 29.0296 19.1072L28.9992 18.9355C28.9974 18.9254 29.0042 18.9158 29.0143 18.914L29.1489 18.8903C29.159 18.8885 29.1686 18.8953 29.1704 18.9054L29.204 19.0952L29.3906 19.0624C29.4007 19.0606 29.4103 19.0673 29.4121 19.0774L29.4359 19.2117C29.4377 19.2218 29.4309 19.2314 29.4208 19.2332L29.2343 19.2661L29.2655 19.4425C29.2673 19.4526 29.2605 19.4622 29.2504 19.464L29.1158 19.4877C29.1057 19.4895 29.0961 19.4828 29.0943 19.4727L29.0631 19.2963L28.8825 19.3281C28.8724 19.3299 28.8628 19.3231 28.861 19.3131L28.8372 19.1787C28.8354 19.1686 28.8422 19.159 28.8523 19.1572ZM28.136 19.5913L28.2983 19.5627C28.3084 19.5609 28.3151 19.5513 28.3133 19.5412L28.283 19.3696C28.2812 19.3595 28.2879 19.3499 28.298 19.3481L28.4326 19.3244C28.4427 19.3226 28.4524 19.3293 28.4542 19.3394L28.4878 19.5293L28.6743 19.4964C28.6844 19.4946 28.6941 19.5014 28.6958 19.5115L28.7196 19.6458C28.7214 19.6559 28.7147 19.6655 28.7045 19.6673L28.518 19.7002L28.5492 19.8766C28.551 19.8866 28.5443 19.8963 28.5342 19.898L28.3995 19.9218C28.3894 19.9235 28.3798 19.9168 28.378 19.9067L28.3468 19.7303L28.1663 19.7621C28.1561 19.7639 28.1465 19.7572 28.1447 19.7471L28.121 19.6128C28.1192 19.6027 28.1259 19.5931 28.136 19.5913ZM29.2826 19.7978L29.1203 19.8264C29.1102 19.8282 29.1035 19.8378 29.1053 19.8479L29.1356 20.0195C29.1374 20.0296 29.1307 20.0392 29.1206 20.041L28.986 20.0647C28.9759 20.0665 28.9662 20.0598 28.9644 20.0497L28.9308 19.8598L28.7443 19.8927C28.7342 19.8945 28.7245 19.8877 28.7228 19.8776L28.699 19.7433C28.6972 19.7332 28.7039 19.7236 28.714 19.7218L28.9006 19.689L28.8694 19.5126C28.8676 19.5025 28.8743 19.4929 28.8844 19.4911L29.0191 19.4673C29.0292 19.4656 29.0388 19.4723 29.0406 19.4824L29.0718 19.6588L29.2523 19.627C29.2624 19.6252 29.2721 19.6319 29.2739 19.642L29.2976 19.7763C29.2994 19.7864 29.2927 19.796 29.2826 19.7978ZM28.5663 20.2319L28.4041 20.2605C28.394 20.2622 28.3872 20.2719 28.389 20.2819L28.4194 20.4536C28.4212 20.4637 28.4144 20.4733 28.4043 20.4751L28.2697 20.4988C28.2596 20.5006 28.25 20.4938 28.2482 20.4837L28.2146 20.2939L28.028 20.3267C28.0179 20.3285 28.0083 20.3218 28.0065 20.3117L27.9827 20.1774C27.9809 20.1673 27.9877 20.1577 27.9978 20.1559L28.1843 20.123L28.1531 19.9466C28.1513 19.9365 28.1581 19.9269 28.1682 19.9251L28.3028 19.9014C28.3129 19.8996 28.3225 19.9064 28.3243 19.9164L28.3555 20.0928L28.5361 20.061C28.5462 20.0592 28.5558 20.066 28.5576 20.0761L28.5814 20.2104C28.5832 20.2205 28.5764 20.2301 28.5663 20.2319ZM28.571 20.306L28.7333 20.2774C28.7434 20.2757 28.7501 20.266 28.7483 20.2559L28.718 20.0843C28.7162 20.0742 28.7229 20.0646 28.733 20.0628L28.8676 20.0391C28.8777 20.0373 28.8874 20.0441 28.8892 20.0541L28.9228 20.244L29.1093 20.2112C29.1194 20.2094 29.1291 20.2161 29.1308 20.2262L29.1546 20.3605C29.1564 20.3706 29.1497 20.3802 29.1396 20.382L28.953 20.4149L28.9842 20.5913C28.986 20.6014 28.9793 20.611 28.9692 20.6128L28.8345 20.6365C28.8244 20.6383 28.8148 20.6315 28.813 20.6215L28.7818 20.4451L28.6013 20.4769C28.5912 20.4787 28.5815 20.4719 28.5797 20.4618L28.556 20.3275C28.5542 20.3174 28.5609 20.3078 28.571 20.306ZM27.8548 20.7401L28.017 20.7115C28.0271 20.7097 28.0339 20.7001 28.0321 20.69L28.0017 20.5184C27.9999 20.5083 28.0067 20.4987 28.0168 20.4969L28.1514 20.4732C28.1615 20.4714 28.1711 20.4781 28.1729 20.4882L28.2065 20.6781L28.3931 20.6452C28.4032 20.6434 28.4128 20.6502 28.4146 20.6602L28.4384 20.7946C28.4401 20.8047 28.4334 20.8143 28.4233 20.8161L28.2367 20.8489L28.268 21.0253C28.2698 21.0354 28.263 21.045 28.2529 21.0468L28.1183 21.0705C28.1082 21.0723 28.0985 21.0656 28.0968 21.0555L28.0655 20.8791L27.885 20.9109C27.8749 20.9127 27.8653 20.906 27.8635 20.8959L27.8397 20.7616C27.8379 20.7515 27.8447 20.7419 27.8548 20.7401ZM29.0013 20.9466L28.8391 20.9752C28.829 20.977 28.8222 20.9866 28.824 20.9967L28.8544 21.1683C28.8562 21.1784 28.8494 21.188 28.8393 21.1898L28.7047 21.2135C28.6946 21.2153 28.685 21.2086 28.6832 21.1985L28.6496 21.0086L28.463 21.0415C28.4529 21.0433 28.4433 21.0365 28.4415 21.0264L28.4177 20.8921C28.4159 20.882 28.4227 20.8724 28.4328 20.8706L28.6193 20.8377L28.5881 20.6613C28.5863 20.6513 28.5931 20.6416 28.6032 20.6399L28.7378 20.6161C28.7479 20.6144 28.7575 20.6211 28.7593 20.6312L28.7905 20.8075L28.9711 20.7757C28.9812 20.774 28.9908 20.7807 28.9926 20.7908L29.0164 20.9251C29.0182 20.9352 29.0114 20.9448 29.0013 20.9466ZM28.2851 21.3807L28.1228 21.4092C28.1127 21.411 28.106 21.4206 28.1078 21.4307L28.1381 21.6024C28.1399 21.6125 28.1332 21.6221 28.1231 21.6239L27.9884 21.6476C27.9783 21.6494 27.9687 21.6426 27.9669 21.6325L27.9333 21.4427L27.7468 21.4755C27.7367 21.4773 27.727 21.4706 27.7252 21.4605L27.7015 21.3261C27.6997 21.3161 27.7064 21.3064 27.7165 21.3047L27.9031 21.2718L27.8718 21.0954C27.8701 21.0853 27.8768 21.0757 27.8869 21.0739L28.0215 21.0502C28.0316 21.0484 28.0413 21.0551 28.0431 21.0652L28.0743 21.2416L28.2548 21.2098C28.2649 21.208 28.2746 21.2148 28.2764 21.2248L28.3001 21.3592C28.3019 21.3693 28.2952 21.3789 28.2851 21.3807ZM28.2898 21.4548L28.452 21.4262C28.4621 21.4244 28.4689 21.4148 28.4671 21.4047L28.4367 21.2331C28.4349 21.223 28.4417 21.2134 28.4518 21.2116L28.5864 21.1879C28.5965 21.1861 28.6061 21.1928 28.6079 21.2029L28.6415 21.3928L28.8281 21.3599C28.8382 21.3582 28.8478 21.3649 28.8496 21.375L28.8734 21.5093C28.8751 21.5194 28.8684 21.529 28.8583 21.5308L28.6718 21.5637L28.703 21.7401C28.7048 21.7502 28.698 21.7598 28.6879 21.7616L28.5533 21.7853C28.5432 21.7871 28.5335 21.7803 28.5318 21.7702L28.5006 21.5939L28.32 21.6257C28.3099 21.6274 28.3003 21.6207 28.2985 21.6106L28.2747 21.4763C28.2729 21.4662 28.2797 21.4566 28.2898 21.4548ZM27.5735 21.8889L27.7358 21.8603C27.7459 21.8585 27.7526 21.8489 27.7508 21.8388L27.7204 21.6671C27.7187 21.6571 27.7254 21.6474 27.7355 21.6457L27.8701 21.622C27.8802 21.6202 27.8899 21.6269 27.8917 21.637L27.9253 21.8269L28.1118 21.794C28.1219 21.7922 28.1315 21.7989 28.1333 21.809L28.1571 21.9434C28.1589 21.9535 28.1521 21.9631 28.142 21.9649L27.9555 21.9977L27.9867 22.1741C27.9885 22.1842 27.9818 22.1938 27.9717 22.1956L27.837 22.2193C27.8269 22.2211 27.8173 22.2144 27.8155 22.2043L27.7843 22.0279L27.6037 22.0597C27.5936 22.0615 27.584 22.0548 27.5822 22.0447L27.5584 21.9103C27.5567 21.9003 27.5634 21.8906 27.5735 21.8889ZM28.7201 22.0954L28.5578 22.124C28.5477 22.1258 28.541 22.1354 28.5428 22.1455L28.5731 22.3171C28.5749 22.3272 28.5682 22.3368 28.5581 22.3386L28.4235 22.3623C28.4133 22.3641 28.4037 22.3573 28.4019 22.3473L28.3683 22.1574L28.1818 22.1903C28.1717 22.192 28.162 22.1853 28.1602 22.1752L28.1365 22.0409C28.1347 22.0308 28.1414 22.0212 28.1515 22.0194L28.3381 21.9865L28.3069 21.8101C28.3051 21.8 28.3118 21.7904 28.3219 21.7886L28.4565 21.7649C28.4667 21.7631 28.4763 21.7699 28.4781 21.78L28.5093 21.9563L28.6898 21.9245C28.6999 21.9228 28.7096 21.9295 28.7114 21.9396L28.7351 22.0739C28.7369 22.084 28.7302 22.0936 28.7201 22.0954ZM28.0038 22.5295L27.8416 22.558C27.8315 22.5598 27.8247 22.5694 27.8265 22.5795L27.8569 22.7512C27.8587 22.7613 27.8519 22.7709 27.8418 22.7727L27.7072 22.7964C27.6971 22.7981 27.6875 22.7914 27.6857 22.7813L27.6521 22.5914L27.4655 22.6243C27.4554 22.6261 27.4458 22.6194 27.444 22.6093L27.4202 22.4749C27.4184 22.4649 27.4252 22.4552 27.4353 22.4535L27.6218 22.4206L27.5906 22.2442C27.5888 22.2341 27.5956 22.2245 27.6057 22.2227L27.7403 22.199C27.7504 22.1972 27.76 22.2039 27.7618 22.214L27.793 22.3904L27.9736 22.3586C27.9837 22.3568 27.9933 22.3635 27.9951 22.3736L28.0189 22.508C28.0207 22.5181 28.0139 22.5277 28.0038 22.5295ZM28.0085 22.6036L28.1708 22.575C28.1809 22.5732 28.1876 22.5636 28.1858 22.5535L28.1554 22.3819C28.1537 22.3718 28.1604 22.3622 28.1705 22.3604L28.3051 22.3367C28.3152 22.3349 28.3249 22.3416 28.3267 22.3517L28.3603 22.5416L28.5468 22.5087C28.5569 22.5069 28.5665 22.5137 28.5683 22.5238L28.5921 22.6581C28.5939 22.6682 28.5871 22.6778 28.577 22.6796L28.3905 22.7125L28.4217 22.8889C28.4235 22.8989 28.4168 22.9086 28.4067 22.9103L28.272 22.9341C28.2619 22.9358 28.2523 22.9291 28.2505 22.919L28.2193 22.7426L28.0388 22.7745C28.0286 22.7762 28.019 22.7695 28.0172 22.7594L27.9934 22.6251C27.9917 22.615 27.9984 22.6054 28.0085 22.6036ZM27.2923 23.0376L27.4545 23.0091C27.4646 23.0073 27.4714 22.9977 27.4696 22.9876L27.4392 22.8159C27.4374 22.8058 27.4442 22.7962 27.4543 22.7944L27.5889 22.7707C27.599 22.769 27.6086 22.7757 27.6104 22.7858L27.644 22.9757L27.8305 22.9428C27.8407 22.941 27.8503 22.9477 27.8521 22.9578L27.8759 23.0922C27.8776 23.1022 27.8709 23.1119 27.8608 23.1136L27.6742 23.1465L27.7055 23.3229C27.7073 23.333 27.7005 23.3426 27.6904 23.3444L27.5558 23.3681C27.5457 23.3699 27.536 23.3632 27.5342 23.3531L27.503 23.1767L27.3225 23.2085C27.3124 23.2103 27.3027 23.2036 27.301 23.1935L27.2772 23.0591C27.2754 23.049 27.2822 23.0394 27.2923 23.0376ZM28.4388 23.2442L28.2766 23.2728C28.2665 23.2745 28.2597 23.2842 28.2615 23.2942L28.2919 23.4659C28.2937 23.476 28.2869 23.4856 28.2768 23.4874L28.1422 23.5111C28.1321 23.5129 28.1225 23.5061 28.1207 23.4961L28.0871 23.3062L27.9005 23.339C27.8904 23.3408 27.8808 23.3341 27.879 23.324L27.8552 23.1897C27.8534 23.1796 27.8602 23.17 27.8703 23.1682L28.0568 23.1353L28.0256 22.9589C28.0238 22.9488 28.0306 22.9392 28.0407 22.9374L28.1753 22.9137C28.1854 22.9119 28.195 22.9187 28.1968 22.9287L28.228 23.1051L28.4086 23.0733C28.4187 23.0715 28.4283 23.0783 28.4301 23.0884L28.4539 23.2227C28.4557 23.2328 28.4489 23.2424 28.4388 23.2442ZM27.7226 23.6782L27.5603 23.7068C27.5502 23.7086 27.5435 23.7182 27.5452 23.7283L27.5756 23.9C27.5774 23.91 27.5707 23.9197 27.5606 23.9214L27.4259 23.9451C27.4158 23.9469 27.4062 23.9402 27.4044 23.9301L27.3708 23.7402L27.1843 23.7731C27.1742 23.7749 27.1645 23.7682 27.1627 23.7581L27.139 23.6237C27.1372 23.6136 27.1439 23.604 27.154 23.6022L27.3406 23.5694L27.3093 23.393C27.3076 23.3829 27.3143 23.3733 27.3244 23.3715L27.459 23.3478C27.4691 23.346 27.4788 23.3527 27.4806 23.3628L27.5118 23.5392L27.6923 23.5074C27.7024 23.5056 27.7121 23.5123 27.7138 23.5224L27.7376 23.6568C27.7394 23.6668 27.7327 23.6765 27.7226 23.6782ZM27.7273 23.7524L27.8895 23.7238C27.8996 23.722 27.9064 23.7124 27.9046 23.7023L27.8742 23.5307C27.8724 23.5206 27.8792 23.511 27.8893 23.5092L28.0239 23.4855C28.034 23.4837 28.0436 23.4904 28.0454 23.5005L28.079 23.6904L28.2655 23.6575C28.2757 23.6557 28.2853 23.6625 28.2871 23.6725L28.3109 23.8069C28.3126 23.817 28.3059 23.8266 28.2958 23.8284L28.1092 23.8612L28.1405 24.0376C28.1423 24.0477 28.1355 24.0573 28.1254 24.0591L27.9908 24.0829C27.9807 24.0846 27.971 24.0779 27.9693 24.0678L27.938 23.8914L27.7575 23.9232C27.7474 23.925 27.7378 23.9183 27.736 23.9082L27.7122 23.7739C27.7104 23.7638 27.7172 23.7542 27.7273 23.7524ZM27.011 24.1864L27.1732 24.1579C27.1834 24.1561 27.1901 24.1465 27.1883 24.1364L27.1579 23.9647C27.1562 23.9546 27.1629 23.945 27.173 23.9432L27.3076 23.9195C27.3177 23.9177 27.3274 23.9245 27.3291 23.9346L27.3627 24.1244L27.5493 24.0916C27.5594 24.0898 27.569 24.0965 27.5708 24.1066L27.5946 24.241C27.5964 24.251 27.5896 24.2607 27.5795 24.2624L27.393 24.2953L27.4242 24.4717C27.426 24.4818 27.4193 24.4914 27.4092 24.4932L27.2745 24.5169C27.2644 24.5187 27.2548 24.512 27.253 24.5019L27.2218 24.3255L27.0412 24.3573C27.0311 24.3591 27.0215 24.3523 27.0197 24.3423L26.9959 24.2079C26.9941 24.1978 27.0009 24.1882 27.011 24.1864ZM28.1576 24.393L27.9953 24.4216C27.9852 24.4233 27.9785 24.433 27.9802 24.443L28.0106 24.6147C28.0124 24.6248 28.0057 24.6344 27.9956 24.6362L27.8609 24.6599C27.8508 24.6617 27.8412 24.6549 27.8394 24.6448L27.8058 24.455L27.6193 24.4878C27.6092 24.4896 27.5995 24.4829 27.5977 24.4728L27.574 24.3385C27.5722 24.3284 27.5789 24.3187 27.589 24.317L27.7756 24.2841L27.7443 24.1077C27.7426 24.0976 27.7493 24.088 27.7594 24.0862L27.894 24.0625C27.9041 24.0607 27.9138 24.0674 27.9156 24.0775L27.9468 24.2539L28.1273 24.2221C28.1374 24.2203 28.1471 24.2271 28.1489 24.2371L28.1726 24.3715C28.1744 24.3816 28.1677 24.3912 28.1576 24.393ZM27.4413 24.827L27.2791 24.8556C27.269 24.8574 27.2622 24.867 27.264 24.8771L27.2944 25.0487C27.2962 25.0588 27.2894 25.0684 27.2793 25.0702L27.1447 25.0939C27.1346 25.0957 27.1249 25.089 27.1232 25.0789L27.0896 24.889L26.903 24.9219C26.8929 24.9237 26.8833 24.9169 26.8815 24.9069L26.8577 24.7725C26.8559 24.7624 26.8627 24.7528 26.8728 24.751L27.0593 24.7182L27.0281 24.5418C27.0263 24.5317 27.033 24.5221 27.0432 24.5203L27.1778 24.4966C27.1879 24.4948 27.1975 24.5015 27.1993 24.5116L27.2305 24.688L27.4111 24.6562C27.4212 24.6544 27.4308 24.6611 27.4326 24.6712L27.4564 24.8055C27.4582 24.8156 27.4514 24.8252 27.4413 24.827ZM27.446 24.9012L27.6083 24.8726C27.6184 24.8708 27.6251 24.8612 27.6233 24.8511L27.5929 24.6794C27.5912 24.6694 27.5979 24.6597 27.608 24.658L27.7426 24.6343C27.7527 24.6325 27.7624 24.6392 27.7642 24.6493L27.7978 24.8392L27.9843 24.8063C27.9944 24.8045 28.004 24.8112 28.0058 24.8213L28.0296 24.9557C28.0314 24.9658 28.0246 24.9754 28.0145 24.9772L27.828 25.01L27.8592 25.1864C27.861 25.1965 27.8543 25.2061 27.8442 25.2079L27.7095 25.2316C27.6994 25.2334 27.6898 25.2267 27.688 25.2166L27.6568 25.0402L27.4762 25.072C27.4661 25.0738 27.4565 25.0671 27.4547 25.057L27.4309 24.9226C27.4292 24.9126 27.4359 24.9029 27.446 24.9012Z" fill="#FF2A2A"/>
<path d="M23.1286 18.9078L23.0608 18.758C23.0566 18.7487 23.0456 18.7445 23.0362 18.7487L22.877 18.8204C22.8677 18.8246 22.8567 18.8205 22.8525 18.8111L22.7962 18.6868C22.792 18.6775 22.7962 18.6665 22.8055 18.6623L22.9817 18.583L22.9037 18.4107C22.8995 18.4013 22.9037 18.3903 22.913 18.3861L23.0377 18.33C23.047 18.3258 23.058 18.33 23.0622 18.3393L23.1401 18.5116L23.3038 18.4379C23.3131 18.4337 23.3241 18.4378 23.3283 18.4472L23.3846 18.5715C23.3888 18.5809 23.3846 18.5918 23.3753 18.596L23.2117 18.6697L23.2871 18.8365C23.2913 18.8458 23.2871 18.8568 23.2778 18.861L23.1532 18.9171C23.1438 18.9213 23.1328 18.9172 23.1286 18.9078ZM23.0465 17.7481L23.1143 17.898C23.1185 17.9073 23.1295 17.9115 23.1388 17.9072L23.298 17.8355C23.3074 17.8313 23.3184 17.8355 23.3226 17.8448L23.3788 17.9692C23.3831 17.9785 23.3789 17.9895 23.3695 17.9937L23.1934 18.073L23.2713 18.2453C23.2756 18.2546 23.2714 18.2656 23.262 18.2698L23.1374 18.3259C23.1281 18.3301 23.1171 18.326 23.1128 18.3167L23.0349 18.1444L22.8713 18.2181C22.862 18.2223 22.851 18.2181 22.8467 18.2088L22.7905 18.0844C22.7863 18.0751 22.7905 18.0641 22.7998 18.0599L22.9634 17.9862L22.888 17.8195C22.8838 17.8101 22.8879 17.7992 22.8973 17.7949L23.0219 17.7388C23.0313 17.7346 23.0423 17.7388 23.0465 17.7481ZM23.6446 18.3338L23.7124 18.4836C23.7166 18.493 23.7276 18.4971 23.737 18.4929L23.8962 18.4212C23.9055 18.417 23.9165 18.4211 23.9208 18.4305L23.977 18.5548C23.9812 18.5642 23.977 18.5751 23.9677 18.5794L23.7916 18.6587L23.8695 18.831C23.8737 18.8403 23.8695 18.8513 23.8602 18.8555L23.7356 18.9116C23.7262 18.9158 23.7152 18.9117 23.711 18.9023L23.6331 18.73L23.4695 18.8037C23.4601 18.8079 23.4491 18.8038 23.4449 18.7945L23.3886 18.6701C23.3844 18.6608 23.3886 18.6498 23.3979 18.6456L23.5615 18.5719L23.4861 18.4051C23.4819 18.3958 23.4861 18.3848 23.4954 18.3806L23.6201 18.3245C23.6294 18.3203 23.6404 18.3244 23.6446 18.3338ZM23.7155 18.3109L23.6477 18.1611C23.6435 18.1518 23.6325 18.1476 23.6231 18.1518L23.4639 18.2235C23.4546 18.2277 23.4436 18.2236 23.4393 18.2142L23.3831 18.0899C23.3789 18.0806 23.3831 18.0696 23.3924 18.0654L23.5685 17.9861L23.4906 17.8138C23.4864 17.8044 23.4906 17.7934 23.4999 17.7892L23.6245 17.7331C23.6339 17.7289 23.6449 17.7331 23.6491 17.7424L23.727 17.9147L23.8906 17.841C23.9 17.8368 23.911 17.8409 23.9152 17.8503L23.9714 17.9746C23.9757 17.984 23.9715 17.9949 23.9622 17.9991L23.7986 18.0728L23.874 18.2396C23.8782 18.2489 23.874 18.2599 23.8647 18.2641L23.74 18.3202C23.7307 18.3244 23.7197 18.3203 23.7155 18.3109ZM24.3136 18.8966L24.2458 18.7468C24.2416 18.7374 24.2306 18.7333 24.2213 18.7375L24.0621 18.8092C24.0527 18.8134 24.0417 18.8092 24.0375 18.7999L23.9813 18.6756C23.977 18.6662 23.9812 18.6553 23.9906 18.651L24.1667 18.5717L24.0888 18.3994C24.0845 18.3901 24.0887 18.3791 24.0981 18.3749L24.2227 18.3188C24.232 18.3146 24.243 18.3187 24.2472 18.3281L24.3252 18.5004L24.4888 18.4267C24.4981 18.4225 24.5091 18.4266 24.5134 18.4359L24.5696 18.5603C24.5738 18.5696 24.5696 18.5806 24.5603 18.5848L24.3967 18.6585L24.4721 18.8252C24.4763 18.8346 24.4721 18.8456 24.4628 18.8498L24.3382 18.9059C24.3288 18.9101 24.3178 18.906 24.3136 18.8966ZM24.2315 17.7369L24.2993 17.8867C24.3035 17.8961 24.3145 17.9002 24.3239 17.896L24.4831 17.8243C24.4924 17.8201 24.5034 17.8242 24.5076 17.8336L24.5639 17.9579C24.5681 17.9673 24.5639 17.9782 24.5546 17.9825L24.3784 18.0618L24.4564 18.2341C24.4606 18.2434 24.4564 18.2544 24.4471 18.2586L24.3224 18.3147C24.3131 18.3189 24.3021 18.3148 24.2979 18.3054L24.22 18.1331L24.0563 18.2068C24.047 18.211 24.036 18.2069 24.0318 18.1976L23.9755 18.0732C23.9713 18.0639 23.9755 18.0529 23.9848 18.0487L24.1484 17.975L24.073 17.8082C24.0688 17.7989 24.073 17.7879 24.0823 17.7837L24.2069 17.7276C24.2163 17.7234 24.2273 17.7275 24.2315 17.7369ZM24.8297 18.3225L24.8974 18.4724C24.9016 18.4817 24.9126 18.4859 24.922 18.4817L25.0812 18.41C25.0906 18.4058 25.1016 18.4099 25.1058 18.4193L25.162 18.5436C25.1662 18.5529 25.162 18.5639 25.1527 18.5681L24.9766 18.6474L25.0545 18.8197C25.0587 18.8291 25.0546 18.84 25.0452 18.8443L24.9206 18.9004C24.9112 18.9046 24.9002 18.9004 24.896 18.8911L24.8181 18.7188L24.6545 18.7925C24.6451 18.7967 24.6341 18.7926 24.6299 18.7832L24.5737 18.6589C24.5694 18.6495 24.5736 18.6386 24.583 18.6343L24.7466 18.5607L24.6712 18.3939C24.6669 18.3846 24.6711 18.3736 24.6805 18.3694L24.8051 18.3133C24.8144 18.3091 24.8254 18.3132 24.8297 18.3225ZM24.9005 18.2997L24.8327 18.1499C24.8285 18.1405 24.8175 18.1364 24.8081 18.1406L24.6489 18.2123C24.6396 18.2165 24.6286 18.2123 24.6244 18.203L24.5681 18.0787C24.5639 18.0693 24.5681 18.0584 24.5774 18.0541L24.7536 17.9748L24.6756 17.8025C24.6714 17.7932 24.6756 17.7822 24.6849 17.778L24.8096 17.7219C24.8189 17.7177 24.8299 17.7218 24.8341 17.7312L24.912 17.9035L25.0757 17.8298C25.085 17.8256 25.096 17.8297 25.1002 17.839L25.1565 17.9634C25.1607 17.9727 25.1565 17.9837 25.1472 17.9879L24.9836 18.0616L25.059 18.2283C25.0632 18.2377 25.059 18.2487 25.0497 18.2529L24.9251 18.309C24.9157 18.3132 24.9047 18.3091 24.9005 18.2997Z" fill="#FF2A2A"/>
<path d="M30.0724 18.9769L30.0046 18.8271C30.0004 18.8177 29.9894 18.8136 29.98 18.8178L29.8208 18.8895C29.8115 18.8937 29.8005 18.8896 29.7962 18.8802L29.74 18.7559C29.7358 18.7466 29.74 18.7356 29.7493 18.7314L29.9254 18.6521L29.8475 18.4798C29.8433 18.4704 29.8475 18.4594 29.8568 18.4552L29.9814 18.3991C29.9908 18.3949 30.0018 18.3991 30.006 18.4084L30.0839 18.5807L30.2475 18.507C30.2569 18.5028 30.2679 18.5069 30.2721 18.5163L30.3284 18.6406C30.3326 18.6499 30.3284 18.6609 30.3191 18.6651L30.1555 18.7388L30.2309 18.9056C30.2351 18.9149 30.2309 18.9259 30.2216 18.9301L30.0969 18.9862C30.0876 18.9904 30.0766 18.9863 30.0724 18.9769ZM29.9903 17.8172L30.058 17.9671C30.0623 17.9764 30.0733 17.9805 30.0826 17.9763L30.2418 17.9046C30.2512 17.9004 30.2622 17.9046 30.2664 17.9139L30.3226 18.0382C30.3268 18.0476 30.3227 18.0586 30.3133 18.0628L30.1372 18.1421L30.2151 18.3144C30.2193 18.3237 30.2152 18.3347 30.2058 18.3389L30.0812 18.395C30.0719 18.3992 30.0609 18.3951 30.0566 18.3858L29.9787 18.2135L29.8151 18.2871C29.8058 18.2914 29.7948 18.2872 29.7905 18.2779L29.7343 18.1535C29.7301 18.1442 29.7342 18.1332 29.7436 18.129L29.9072 18.0553L29.8318 17.8886C29.8276 17.8792 29.8317 17.8682 29.8411 17.864L29.9657 17.8079C29.9751 17.8037 29.9861 17.8079 29.9903 17.8172ZM30.5884 18.4029L30.6562 18.5527C30.6604 18.5621 30.6714 18.5662 30.6808 18.562L30.84 18.4903C30.8493 18.4861 30.8603 18.4902 30.8645 18.4996L30.9208 18.6239C30.925 18.6333 30.9208 18.6442 30.9115 18.6484L30.7353 18.7278L30.8133 18.9001C30.8175 18.9094 30.8133 18.9204 30.804 18.9246L30.6794 18.9807C30.67 18.9849 30.659 18.9808 30.6548 18.9714L30.5769 18.7991L30.4132 18.8728C30.4039 18.877 30.3929 18.8729 30.3887 18.8635L30.3324 18.7392C30.3282 18.7299 30.3324 18.7189 30.3417 18.7147L30.5053 18.641L30.4299 18.4742C30.4257 18.4649 30.4299 18.4539 30.4392 18.4497L30.5638 18.3936C30.5732 18.3894 30.5842 18.3935 30.5884 18.4029ZM30.6593 18.38L30.5915 18.2302C30.5873 18.2208 30.5763 18.2167 30.5669 18.2209L30.4077 18.2926C30.3983 18.2968 30.3873 18.2927 30.3831 18.2833L30.3269 18.159C30.3227 18.1497 30.3269 18.1387 30.3362 18.1345L30.5123 18.0552L30.4344 17.8829C30.4302 17.8735 30.4344 17.8625 30.4437 17.8583L30.5683 17.8022C30.5777 17.798 30.5887 17.8022 30.5929 17.8115L30.6708 17.9838L30.8344 17.9101C30.8438 17.9059 30.8548 17.91 30.859 17.9194L30.9152 18.0437C30.9195 18.053 30.9153 18.064 30.9059 18.0682L30.7423 18.1419L30.8177 18.3087C30.822 18.318 30.8178 18.329 30.8084 18.3332L30.6838 18.3893C30.6745 18.3935 30.6635 18.3894 30.6593 18.38ZM31.2574 18.9657L31.1896 18.8158C31.1854 18.8065 31.1744 18.8024 31.1651 18.8066L31.0058 18.8783C30.9965 18.8825 30.9855 18.8783 30.9813 18.869L30.9251 18.7447C30.9208 18.7353 30.925 18.7243 30.9343 18.7201L31.1105 18.6408L31.0326 18.4685C31.0283 18.4592 31.0325 18.4482 31.0418 18.444L31.1665 18.3879C31.1758 18.3837 31.1868 18.3878 31.191 18.3972L31.2689 18.5695L31.4326 18.4958C31.4419 18.4915 31.4529 18.4957 31.4571 18.505L31.5134 18.6294C31.5176 18.6387 31.5134 18.6497 31.5041 18.6539L31.3405 18.7276L31.4159 18.8943C31.4201 18.9037 31.4159 18.9147 31.4066 18.9189L31.282 18.975C31.2726 18.9792 31.2616 18.975 31.2574 18.9657ZM31.1753 17.806L31.2431 17.9558C31.2473 17.9652 31.2583 17.9693 31.2676 17.9651L31.4269 17.8934C31.4362 17.8892 31.4472 17.8933 31.4514 17.9027L31.5076 18.027C31.5119 18.0364 31.5077 18.0473 31.4983 18.0515L31.3222 18.1309L31.4001 18.3032C31.4044 18.3125 31.4002 18.3235 31.3908 18.3277L31.2662 18.3838C31.2569 18.388 31.2459 18.3839 31.2417 18.3745L31.1637 18.2022L31.0001 18.2759C30.9908 18.2801 30.9798 18.276 30.9756 18.2666L30.9193 18.1423C30.9151 18.133 30.9193 18.122 30.9286 18.1178L31.0922 18.0441L31.0168 17.8773C31.0126 17.868 31.0168 17.857 31.0261 17.8528L31.1507 17.7967C31.1601 17.7925 31.1711 17.7966 31.1753 17.806ZM31.7734 18.3916L31.8412 18.5415C31.8454 18.5508 31.8564 18.555 31.8658 18.5508L32.025 18.4791C32.0343 18.4749 32.0453 18.479 32.0496 18.4883L32.1058 18.6127C32.11 18.622 32.1058 18.633 32.0965 18.6372L31.9204 18.7165L31.9983 18.8888C32.0025 18.8982 31.9983 18.9091 31.989 18.9133L31.8644 18.9695C31.855 18.9737 31.844 18.9695 31.8398 18.9602L31.7619 18.7879L31.5983 18.8616C31.5889 18.8658 31.5779 18.8616 31.5737 18.8523L31.5175 18.728C31.5132 18.7186 31.5174 18.7076 31.5267 18.7034L31.6904 18.6298L31.615 18.463C31.6107 18.4537 31.6149 18.4427 31.6242 18.4385L31.7489 18.3824C31.7582 18.3781 31.7692 18.3823 31.7734 18.3916ZM31.8443 18.3688L31.7765 18.2189C31.7723 18.2096 31.7613 18.2055 31.7519 18.2097L31.5927 18.2814C31.5834 18.2856 31.5724 18.2814 31.5681 18.2721L31.5119 18.1478C31.5077 18.1384 31.5119 18.1274 31.5212 18.1232L31.6973 18.0439L31.6194 17.8716C31.6152 17.8623 31.6194 17.8513 31.6287 17.8471L31.7533 17.791C31.7627 17.7868 31.7737 17.7909 31.7779 17.8003L31.8558 17.9726L32.0194 17.8989C32.0288 17.8946 32.0398 17.8988 32.044 17.9081L32.1003 18.0325C32.1045 18.0418 32.1003 18.0528 32.091 18.057L31.9274 18.1307L32.0028 18.2974C32.007 18.3068 32.0028 18.3178 31.9935 18.322L31.8689 18.3781C31.8595 18.3823 31.8485 18.3781 31.8443 18.3688Z" fill="#FF2A2A"/>
<path d="M26.9244 18.9576L26.8567 18.8078C26.8524 18.7984 26.8414 18.7943 26.8321 18.7985L26.6729 18.8702C26.6635 18.8744 26.6525 18.8703 26.6483 18.8609L26.5921 18.7366C26.5879 18.7272 26.592 18.7163 26.6014 18.7121L26.7775 18.6327L26.6996 18.4604C26.6954 18.4511 26.6995 18.4401 26.7089 18.4359L26.8335 18.3798C26.8428 18.3756 26.8538 18.3797 26.8581 18.3891L26.936 18.5614L27.0996 18.4877C27.1089 18.4835 27.1199 18.4876 27.1242 18.497L27.1804 18.6213C27.1846 18.6306 27.1805 18.6416 27.1711 18.6458L27.0075 18.7195L27.0829 18.8863C27.0871 18.8956 27.083 18.9066 27.0736 18.9108L26.949 18.9669C26.9396 18.9711 26.9286 18.967 26.9244 18.9576ZM26.8423 17.7979L26.9101 17.9477C26.9143 17.9571 26.9253 17.9612 26.9347 17.957L27.0939 17.8853C27.1032 17.8811 27.1142 17.8853 27.1184 17.8946L27.1747 18.0189C27.1789 18.0283 27.1747 18.0393 27.1654 18.0435L26.9892 18.1228L27.0672 18.2951C27.0714 18.3044 27.0672 18.3154 27.0579 18.3196L26.9333 18.3757C26.9239 18.3799 26.9129 18.3758 26.9087 18.3664L26.8308 18.1941L26.6672 18.2678C26.6578 18.272 26.6468 18.2679 26.6426 18.2586L26.5863 18.1342C26.5821 18.1249 26.5863 18.1139 26.5956 18.1097L26.7592 18.036L26.6838 17.8693C26.6796 17.8599 26.6838 17.8489 26.6931 17.8447L26.8177 17.7886C26.8271 17.7844 26.8381 17.7886 26.8423 17.7979ZM27.4405 18.3836L27.5082 18.5334C27.5124 18.5428 27.5234 18.5469 27.5328 18.5427L27.692 18.471C27.7014 18.4668 27.7124 18.4709 27.7166 18.4803L27.7728 18.6046C27.777 18.6139 27.7729 18.6249 27.7635 18.6291L27.5874 18.7084L27.6653 18.8807C27.6695 18.8901 27.6654 18.9011 27.656 18.9053L27.5314 18.9614C27.522 18.9656 27.511 18.9614 27.5068 18.9521L27.4289 18.7798L27.2653 18.8535C27.2559 18.8577 27.2449 18.8536 27.2407 18.8442L27.1845 18.7199C27.1803 18.7105 27.1844 18.6996 27.1938 18.6954L27.3574 18.6217L27.282 18.4549C27.2778 18.4456 27.2819 18.4346 27.2913 18.4304L27.4159 18.3743C27.4252 18.3701 27.4362 18.3742 27.4405 18.3836ZM27.5113 18.3607L27.4435 18.2109C27.4393 18.2015 27.4283 18.1974 27.419 18.2016L27.2597 18.2733C27.2504 18.2775 27.2394 18.2734 27.2352 18.264L27.179 18.1397C27.1747 18.1303 27.1789 18.1194 27.1883 18.1152L27.3644 18.0358L27.2865 17.8635C27.2822 17.8542 27.2864 17.8432 27.2957 17.839L27.4204 17.7829C27.4297 17.7787 27.4407 17.7828 27.4449 17.7922L27.5229 17.9645L27.6865 17.8908C27.6958 17.8866 27.7068 17.8907 27.711 17.9001L27.7673 18.0244C27.7715 18.0337 27.7673 18.0447 27.758 18.0489L27.5944 18.1226L27.6698 18.2894C27.674 18.2987 27.6698 18.3097 27.6605 18.3139L27.5359 18.37C27.5265 18.3742 27.5155 18.3701 27.5113 18.3607ZM28.1094 18.9464L28.0417 18.7965C28.0375 18.7872 28.0264 18.7831 28.0171 18.7873L27.8579 18.859C27.8485 18.8632 27.8375 18.859 27.8333 18.8497L27.7771 18.7253C27.7729 18.716 27.777 18.705 27.7864 18.7008L27.9625 18.6215L27.8846 18.4492C27.8804 18.4399 27.8845 18.4289 27.8939 18.4247L28.0185 18.3686C28.0279 18.3644 28.0389 18.3685 28.0431 18.3778L28.121 18.5501L28.2846 18.4765C28.294 18.4722 28.305 18.4764 28.3092 18.4857L28.3654 18.6101C28.3696 18.6194 28.3655 18.6304 28.3561 18.6346L28.1925 18.7083L28.2679 18.875C28.2721 18.8844 28.268 18.8953 28.2586 18.8996L28.134 18.9557C28.1247 18.9599 28.1137 18.9557 28.1094 18.9464ZM28.0273 17.7867L28.0951 17.9365C28.0993 17.9458 28.1103 17.95 28.1197 17.9458L28.2789 17.8741C28.2882 17.8699 28.2992 17.874 28.3035 17.8834L28.3597 18.0077C28.3639 18.017 28.3597 18.028 28.3504 18.0322L28.1743 18.1115L28.2522 18.2838C28.2564 18.2932 28.2522 18.3042 28.2429 18.3084L28.1183 18.3645C28.1089 18.3687 28.0979 18.3645 28.0937 18.3552L28.0158 18.1829L27.8522 18.2566C27.8428 18.2608 27.8318 18.2567 27.8276 18.2473L27.7714 18.123C27.7671 18.1136 27.7713 18.1027 27.7807 18.0985L27.9443 18.0248L27.8689 17.858C27.8646 17.8487 27.8688 17.8377 27.8781 17.8335L28.0028 17.7774C28.0121 17.7732 28.0231 17.7773 28.0273 17.7867Z" fill="#FF2A2A"/>
<path d="M22.2228 22.434L22.155 22.2841C22.1508 22.2748 22.1398 22.2706 22.1304 22.2748L21.9712 22.3465C21.9619 22.3507 21.9509 22.3466 21.9466 22.3373L21.8904 22.2129C21.8862 22.2036 21.8904 22.1926 21.8997 22.1884L22.0758 22.1091L21.9979 21.9368C21.9937 21.9275 21.9979 21.9165 22.0072 21.9123L22.1318 21.8561C22.1412 21.8519 22.1522 21.8561 22.1564 21.8654L22.2343 22.0377L22.3979 21.964C22.4073 21.9598 22.4183 21.964 22.4225 21.9733L22.4787 22.0976C22.483 22.107 22.4788 22.118 22.4694 22.1222L22.3058 22.1958L22.3812 22.3626C22.3855 22.3719 22.3813 22.3829 22.372 22.3871L22.2473 22.4432C22.238 22.4475 22.227 22.4433 22.2228 22.434ZM22.1407 21.2742L22.2084 21.4241C22.2127 21.4334 22.2237 21.4376 22.233 21.4334L22.3922 21.3617C22.4016 21.3575 22.4126 21.3616 22.4168 21.3709L22.473 21.4953C22.4772 21.5046 22.4731 21.5156 22.4637 21.5198L22.2876 21.5991L22.3655 21.7714C22.3697 21.7807 22.3656 21.7917 22.3562 21.7959L22.2316 21.8521C22.2223 21.8563 22.2112 21.8521 22.207 21.8428L22.1291 21.6705L21.9655 21.7442C21.9561 21.7484 21.9451 21.7442 21.9409 21.7349L21.8847 21.6106C21.8805 21.6012 21.8846 21.5902 21.894 21.586L22.0576 21.5124L21.9822 21.3456C21.978 21.3363 21.9821 21.3253 21.9915 21.3211L22.1161 21.265C22.1254 21.2607 22.1365 21.2649 22.1407 21.2742ZM22.7388 21.8599L22.8066 22.0098C22.8108 22.0191 22.8218 22.0232 22.8311 22.019L22.9904 21.9473C22.9997 21.9431 23.0107 21.9473 23.0149 21.9566L23.0711 22.0809C23.0754 22.0903 23.0712 22.1013 23.0619 22.1055L22.8857 22.1848L22.9636 22.3571C22.9679 22.3664 22.9637 22.3774 22.9544 22.3816L22.8297 22.4377C22.8204 22.4419 22.8094 22.4378 22.8052 22.4285L22.7273 22.2562L22.5636 22.3298C22.5543 22.3341 22.5433 22.3299 22.5391 22.3206L22.4828 22.1962C22.4786 22.1869 22.4828 22.1759 22.4921 22.1717L22.6557 22.098L22.5803 21.9313C22.5761 21.9219 22.5803 21.9109 22.5896 21.9067L22.7142 21.8506C22.7236 21.8464 22.7346 21.8506 22.7388 21.8599ZM22.8096 21.8371L22.7419 21.6872C22.7377 21.6779 22.7267 21.6737 22.7173 21.6779L22.5581 21.7496C22.5487 21.7538 22.5377 21.7497 22.5335 21.7404L22.4773 21.616C22.4731 21.6067 22.4772 21.5957 22.4866 21.5915L22.6627 21.5122L22.5848 21.3399C22.5806 21.3306 22.5847 21.3196 22.5941 21.3154L22.7187 21.2592C22.7281 21.255 22.7391 21.2592 22.7433 21.2685L22.8212 21.4408L22.9848 21.3671C22.9942 21.3629 23.0052 21.3671 23.0094 21.3764L23.0656 21.5007C23.0698 21.5101 23.0657 21.5211 23.0563 21.5253L22.8927 21.5989L22.9681 21.7657C22.9724 21.775 22.9682 21.786 22.9588 21.7902L22.8342 21.8463C22.8249 21.8506 22.8139 21.8464 22.8096 21.8371ZM23.4078 22.4227L23.34 22.2729C23.3358 22.2635 23.3248 22.2594 23.3154 22.2636L23.1562 22.3353C23.1469 22.3395 23.1359 22.3354 23.1317 22.326L23.0754 22.2017C23.0712 22.1924 23.0754 22.1814 23.0847 22.1772L23.2609 22.0979L23.1829 21.9256C23.1787 21.9162 23.1829 21.9052 23.1922 21.901L23.3168 21.8449C23.3262 21.8407 23.3372 21.8449 23.3414 21.8542L23.4193 22.0265L23.583 21.9528C23.5923 21.9486 23.6033 21.9527 23.6075 21.9621L23.6638 22.0864C23.668 22.0957 23.6638 22.1067 23.6545 22.1109L23.4909 22.1846L23.5663 22.3514C23.5705 22.3607 23.5663 22.3717 23.557 22.3759L23.4324 22.432C23.423 22.4362 23.412 22.4321 23.4078 22.4227ZM23.3257 21.263L23.3934 21.4129C23.3977 21.4222 23.4087 21.4263 23.418 21.4221L23.5772 21.3504C23.5866 21.3462 23.5976 21.3504 23.6018 21.3597L23.658 21.484C23.6623 21.4934 23.6581 21.5044 23.6487 21.5086L23.4726 21.5879L23.5505 21.7602C23.5548 21.7695 23.5506 21.7805 23.5412 21.7847L23.4166 21.8408C23.4073 21.845 23.3963 21.8409 23.392 21.8316L23.3141 21.6593L23.1505 21.7329C23.1412 21.7372 23.1302 21.733 23.1259 21.7237L23.0697 21.5993C23.0655 21.59 23.0696 21.579 23.079 21.5748L23.2426 21.5011L23.1672 21.3344C23.163 21.325 23.1671 21.314 23.1765 21.3098L23.3011 21.2537C23.3105 21.2495 23.3215 21.2537 23.3257 21.263ZM23.9238 21.8487L23.9916 21.9985C23.9958 22.0079 24.0068 22.012 24.0162 22.0078L24.1754 21.9361C24.1847 21.9319 24.1957 21.936 24.2 21.9454L24.2562 22.0697C24.2604 22.0791 24.2562 22.09 24.2469 22.0942L24.0708 22.1736L24.1487 22.3459C24.1529 22.3552 24.1487 22.3662 24.1394 22.3704L24.0148 22.4265C24.0054 22.4307 23.9944 22.4266 23.9902 22.4172L23.9123 22.2449L23.7487 22.3186C23.7393 22.3228 23.7283 22.3187 23.7241 22.3093L23.6678 22.185C23.6636 22.1757 23.6678 22.1647 23.6771 22.1605L23.8407 22.0868L23.7653 21.92C23.7611 21.9107 23.7653 21.8997 23.7746 21.8955L23.8992 21.8394C23.9086 21.8352 23.9196 21.8393 23.9238 21.8487ZM23.9947 21.8258L23.9269 21.676C23.9227 21.6666 23.9117 21.6625 23.9023 21.6667L23.7431 21.7384C23.7338 21.7426 23.7228 21.7385 23.7185 21.7291L23.6623 21.6048C23.6581 21.5955 23.6623 21.5845 23.6716 21.5803L23.8477 21.501L23.7698 21.3287C23.7656 21.3193 23.7698 21.3083 23.7791 21.3041L23.9037 21.248C23.9131 21.2438 23.9241 21.248 23.9283 21.2573L24.0062 21.4296L24.1698 21.3559C24.1792 21.3517 24.1902 21.3558 24.1944 21.3652L24.2506 21.4895C24.2549 21.4988 24.2507 21.5098 24.2414 21.514L24.0777 21.5877L24.1531 21.7545C24.1574 21.7638 24.1532 21.7748 24.1439 21.779L24.0192 21.8351C24.0099 21.8393 23.9989 21.8352 23.9947 21.8258Z" fill="#FF2A2A"/>
<path d="M29.1666 22.5031L29.0989 22.3532C29.0946 22.3439 29.0836 22.3397 29.0743 22.3439L28.9151 22.4156C28.9057 22.4198 28.8947 22.4157 28.8905 22.4064L28.8343 22.282C28.83 22.2727 28.8342 22.2617 28.8436 22.2575L29.0197 22.1782L28.9418 22.0059C28.9375 21.9965 28.9417 21.9856 28.9511 21.9814L29.0757 21.9252C29.085 21.921 29.096 21.9252 29.1003 21.9345L29.1782 22.1068L29.3418 22.0331C29.3511 22.0289 29.3621 22.0331 29.3664 22.0424L29.4226 22.1667C29.4268 22.1761 29.4227 22.1871 29.4133 22.1913L29.2497 22.2649L29.3251 22.4317C29.3293 22.441 29.3252 22.452 29.3158 22.4562L29.1912 22.5123C29.1818 22.5166 29.1708 22.5124 29.1666 22.5031ZM29.0845 21.3433L29.1523 21.4932C29.1565 21.5025 29.1675 21.5067 29.1769 21.5025L29.3361 21.4308C29.3454 21.4265 29.3564 21.4307 29.3606 21.44L29.4169 21.5644C29.4211 21.5737 29.4169 21.5847 29.4076 21.5889L29.2314 21.6682L29.3094 21.8405C29.3136 21.8498 29.3094 21.8608 29.3001 21.865L29.1755 21.9211C29.1661 21.9254 29.1551 21.9212 29.1509 21.9119L29.073 21.7396L28.9093 21.8133C28.9 21.8175 28.889 21.8133 28.8848 21.804L28.8285 21.6796C28.8243 21.6703 28.8285 21.6593 28.8378 21.6551L29.0014 21.5815L28.926 21.4147C28.9218 21.4054 28.926 21.3944 28.9353 21.3902L29.0599 21.334C29.0693 21.3298 29.0803 21.334 29.0845 21.3433ZM29.6827 21.929L29.7504 22.0788C29.7546 22.0882 29.7656 22.0923 29.775 22.0881L29.9342 22.0164C29.9436 22.0122 29.9546 22.0164 29.9588 22.0257L30.015 22.15C30.0192 22.1594 30.0151 22.1704 30.0057 22.1746L29.8296 22.2539L29.9075 22.4262C29.9117 22.4355 29.9076 22.4465 29.8982 22.4507L29.7736 22.5068C29.7642 22.511 29.7532 22.5069 29.749 22.4975L29.6711 22.3252L29.5075 22.3989C29.4981 22.4032 29.4871 22.399 29.4829 22.3897L29.4267 22.2653C29.4225 22.256 29.4266 22.245 29.436 22.2408L29.5996 22.1671L29.5242 22.0004C29.52 21.991 29.5241 21.98 29.5335 21.9758L29.6581 21.9197C29.6674 21.9155 29.6784 21.9197 29.6827 21.929ZM29.7535 21.9062L29.6857 21.7563C29.6815 21.747 29.6705 21.7428 29.6612 21.747L29.5019 21.8187C29.4926 21.8229 29.4816 21.8188 29.4774 21.8095L29.4212 21.6851C29.4169 21.6758 29.4211 21.6648 29.4304 21.6606L29.6066 21.5813L29.5287 21.409C29.5244 21.3996 29.5286 21.3887 29.5379 21.3844L29.6626 21.3283C29.6719 21.3241 29.6829 21.3283 29.6871 21.3376L29.765 21.5099L29.9287 21.4362C29.938 21.432 29.949 21.4362 29.9532 21.4455L30.0095 21.5698C30.0137 21.5792 30.0095 21.5902 30.0002 21.5944L29.8366 21.668L29.912 21.8348C29.9162 21.8441 29.912 21.8551 29.9027 21.8593L29.7781 21.9154C29.7687 21.9197 29.7577 21.9155 29.7535 21.9062ZM30.3516 22.4918L30.2839 22.342C30.2797 22.3326 30.2686 22.3285 30.2593 22.3327L30.1001 22.4044C30.0907 22.4086 30.0797 22.4045 30.0755 22.3951L30.0193 22.2708C30.0151 22.2614 30.0192 22.2505 30.0286 22.2463L30.2047 22.1669L30.1268 21.9946C30.1226 21.9853 30.1267 21.9743 30.1361 21.9701L30.2607 21.914C30.27 21.9098 30.2811 21.9139 30.2853 21.9233L30.3632 22.0956L30.5268 22.0219C30.5362 22.0177 30.5472 22.0218 30.5514 22.0312L30.6076 22.1555C30.6118 22.1648 30.6077 22.1758 30.5983 22.18L30.4347 22.2537L30.5101 22.4205C30.5143 22.4298 30.5102 22.4408 30.5008 22.445L30.3762 22.5011C30.3669 22.5053 30.3558 22.5012 30.3516 22.4918ZM30.2695 21.3321L30.3373 21.4819C30.3415 21.4913 30.3525 21.4954 30.3619 21.4912L30.5211 21.4195C30.5304 21.4153 30.5414 21.4195 30.5457 21.4288L30.6019 21.5531C30.6061 21.5625 30.6019 21.5735 30.5926 21.5777L30.4165 21.657L30.4944 21.8293C30.4986 21.8386 30.4944 21.8496 30.4851 21.8538L30.3605 21.9099C30.3511 21.9141 30.3401 21.91 30.3359 21.9006L30.258 21.7283L30.0944 21.802C30.085 21.8063 30.074 21.8021 30.0698 21.7928L30.0136 21.6684C30.0093 21.6591 30.0135 21.6481 30.0229 21.6439L30.1865 21.5702L30.1111 21.4035C30.1068 21.3941 30.111 21.3831 30.1203 21.3789L30.245 21.3228C30.2543 21.3186 30.2653 21.3228 30.2695 21.3321ZM30.8677 21.9178L30.9354 22.0676C30.9397 22.077 30.9507 22.0811 30.96 22.0769L31.1192 22.0052C31.1286 22.001 31.1396 22.0051 31.1438 22.0145L31.2 22.1388C31.2042 22.1481 31.2001 22.1591 31.1907 22.1633L31.0146 22.2426L31.0925 22.4149C31.0967 22.4243 31.0926 22.4353 31.0832 22.4395L30.9586 22.4956C30.9493 22.4998 30.9383 22.4956 30.934 22.4863L30.8561 22.314L30.6925 22.3877C30.6832 22.3919 30.6721 22.3878 30.6679 22.3784L30.6117 22.2541C30.6075 22.2448 30.6116 22.2338 30.621 22.2296L30.7846 22.1559L30.7092 21.9891C30.705 21.9798 30.7091 21.9688 30.7185 21.9646L30.8431 21.9085C30.8525 21.9043 30.8635 21.9084 30.8677 21.9178ZM30.9385 21.8949L30.8708 21.7451C30.8665 21.7357 30.8555 21.7316 30.8462 21.7358L30.687 21.8075C30.6776 21.8117 30.6666 21.8076 30.6624 21.7982L30.6062 21.6739C30.602 21.6645 30.6061 21.6536 30.6155 21.6494L30.7916 21.57L30.7137 21.3977C30.7094 21.3884 30.7136 21.3774 30.723 21.3732L30.8476 21.3171C30.8569 21.3129 30.8679 21.317 30.8722 21.3264L30.9501 21.4987L31.1137 21.425C31.123 21.4208 31.134 21.4249 31.1383 21.4343L31.1945 21.5586C31.1987 21.5679 31.1946 21.5789 31.1852 21.5831L31.0216 21.6568L31.097 21.8236C31.1012 21.8329 31.0971 21.8439 31.0877 21.8481L30.9631 21.9042C30.9537 21.9084 30.9427 21.9043 30.9385 21.8949Z" fill="#FF2A2A"/>
<path d="M26.0187 22.4838L25.9509 22.334C25.9467 22.3246 25.9357 22.3205 25.9263 22.3247L25.7671 22.3964C25.7577 22.4006 25.7467 22.3964 25.7425 22.3871L25.6863 22.2628C25.6821 22.2534 25.6863 22.2424 25.6956 22.2382L25.8717 22.1589L25.7938 21.9866C25.7896 21.9773 25.7938 21.9663 25.8031 21.9621L25.9277 21.906C25.9371 21.9018 25.9481 21.9059 25.9523 21.9153L26.0302 22.0876L26.1938 22.0139C26.2032 22.0097 26.2142 22.0138 26.2184 22.0231L26.2746 22.1475C26.2789 22.1568 26.2747 22.1678 26.2653 22.172L26.1017 22.2457L26.1771 22.4124C26.1814 22.4218 26.1772 22.4328 26.1678 22.437L26.0432 22.4931C26.0339 22.4973 26.0229 22.4931 26.0187 22.4838ZM25.9366 21.3241L26.0043 21.4739C26.0085 21.4833 26.0195 21.4874 26.0289 21.4832L26.1881 21.4115C26.1975 21.4073 26.2085 21.4114 26.2127 21.4208L26.2689 21.5451C26.2731 21.5545 26.269 21.5654 26.2596 21.5696L26.0835 21.649L26.1614 21.8213C26.1656 21.8306 26.1615 21.8416 26.1521 21.8458L26.0275 21.9019C26.0181 21.9061 26.0071 21.902 26.0029 21.8926L25.925 21.7203L25.7614 21.794C25.752 21.7982 25.741 21.7941 25.7368 21.7847L25.6806 21.6604C25.6764 21.6511 25.6805 21.6401 25.6899 21.6359L25.8535 21.5622L25.7781 21.3954C25.7739 21.3861 25.778 21.3751 25.7874 21.3709L25.912 21.3148C25.9213 21.3106 25.9323 21.3147 25.9366 21.3241ZM26.5347 21.9097L26.6025 22.0596C26.6067 22.0689 26.6177 22.0731 26.627 22.0689L26.7862 21.9972C26.7956 21.993 26.8066 21.9971 26.8108 22.0064L26.867 22.1308C26.8713 22.1401 26.8671 22.1511 26.8577 22.1553L26.6816 22.2346L26.7595 22.4069C26.7638 22.4163 26.7596 22.4272 26.7502 22.4315L26.6256 22.4876C26.6163 22.4918 26.6053 22.4876 26.6011 22.4783L26.5231 22.306L26.3595 22.3797C26.3502 22.3839 26.3392 22.3797 26.335 22.3704L26.2787 22.2461C26.2745 22.2367 26.2787 22.2258 26.288 22.2215L26.4516 22.1479L26.3762 21.9811C26.372 21.9718 26.3762 21.9608 26.3855 21.9566L26.5101 21.9005C26.5195 21.8963 26.5305 21.9004 26.5347 21.9097ZM26.6055 21.8869L26.5378 21.7371C26.5336 21.7277 26.5225 21.7236 26.5132 21.7278L26.354 21.7995C26.3446 21.8037 26.3336 21.7995 26.3294 21.7902L26.2732 21.6659C26.269 21.6565 26.2731 21.6455 26.2825 21.6413L26.4586 21.562L26.3807 21.3897C26.3765 21.3804 26.3806 21.3694 26.39 21.3652L26.5146 21.3091C26.524 21.3049 26.535 21.309 26.5392 21.3184L26.6171 21.4907L26.7807 21.417C26.7901 21.4128 26.8011 21.4169 26.8053 21.4262L26.8615 21.5506C26.8657 21.5599 26.8616 21.5709 26.8522 21.5751L26.6886 21.6488L26.764 21.8155C26.7682 21.8249 26.7641 21.8359 26.7547 21.8401L26.6301 21.8962C26.6208 21.9004 26.6098 21.8962 26.6055 21.8869ZM27.2037 22.4726L27.1359 22.3227C27.1317 22.3134 27.1207 22.3092 27.1113 22.3134L26.9521 22.3851C26.9428 22.3894 26.9318 22.3852 26.9275 22.3759L26.8713 22.2515C26.8671 22.2422 26.8713 22.2312 26.8806 22.227L27.0567 22.1477L26.9788 21.9754C26.9746 21.9661 26.9788 21.9551 26.9881 21.9509L27.1127 21.8948C27.1221 21.8905 27.1331 21.8947 27.1373 21.904L27.2152 22.0763L27.3788 22.0026C27.3882 21.9984 27.3992 22.0026 27.4034 22.0119L27.4597 22.1363C27.4639 22.1456 27.4597 22.1566 27.4504 22.1608L27.2868 22.2345L27.3622 22.4012C27.3664 22.4105 27.3622 22.4215 27.3529 22.4257L27.2282 22.4819C27.2189 22.4861 27.2079 22.4819 27.2037 22.4726ZM27.1216 21.3128L27.1893 21.4627C27.1936 21.472 27.2046 21.4762 27.2139 21.472L27.3731 21.4003C27.3825 21.3961 27.3935 21.4002 27.3977 21.4095L27.4539 21.5339C27.4581 21.5432 27.454 21.5542 27.4446 21.5584L27.2685 21.6377L27.3464 21.81C27.3506 21.8194 27.3465 21.8303 27.3371 21.8346L27.2125 21.8907C27.2032 21.8949 27.1922 21.8907 27.1879 21.8814L27.11 21.7091L26.9464 21.7828C26.9371 21.787 26.9261 21.7828 26.9218 21.7735L26.8656 21.6492C26.8614 21.6398 26.8655 21.6289 26.8749 21.6246L27.0385 21.551L26.9631 21.3842C26.9589 21.3749 26.963 21.3639 26.9724 21.3597L27.097 21.3036C27.1064 21.2994 27.1174 21.3035 27.1216 21.3128Z" fill="#FF2A2A"/>
</g>
<defs>
<clipPath id="clip0_30_1110">
<rect width="44" height="35" fill="white"/>
</clipPath>
</defs>
</svg>
